<svg id="Gruppe_2021" data-name="Gruppe 2021" xmlns="http://www.w3.org/2000/svg" width="648.485" height="389.204" viewBox="0 0 648.485 389.204">
  <path id="Pfad_9913" data-name="Pfad 9913" d="M173.724,983.635c-54.373.886-118.8,16.022-149.606,87.273-30.707,71.039-21.791,167.205,8.079,235.6,25.665,58.766,79.911,73.516,125.647,63.253,55.694-12.488,114.969-37.652,151.835-98.281,18.093-29.752,31.366-21.46,48.2,1,54.332,72.52,135.149,115.542,210.34,89.882,50.708-17.313,84.488-90.578,85.251-165.142.795-77.777-25.246-161.09-78.7-189.163-62.531-32.824-130.894-28.428-194.46-10.407-31.649,8.972-62.653,11.985-94.026,1.2-36.653-12.589-74.825-15.823-112.553-15.21Zm297.263,136.714c30.7-1.99,56.287,23.217,83.161,41.842-46.64,38.482-83.564,71.671-155.318,11.4C426.582,1135.872,449.982,1121.71,470.987,1120.349Zm-281.1,5.609c32.253-2.011,63.979,20.047,90.822,54.042-44.922,35.178-102.6,59.293-156.432-12.209,21.214-27.708,43.542-40.466,65.609-41.839Z" transform="translate(-5 -983.567)" fill="#0e0e4c"/>
</svg>
