<?xml version="1.0" encoding="UTF-8" standalone="no"?>
<svg
   xmlns:dc="http://purl.org/dc/elements/1.1/"
   xmlns:cc="http://creativecommons.org/ns#"
   xmlns:rdf="http://www.w3.org/1999/02/22-rdf-syntax-ns#"
   xmlns:svg="http://www.w3.org/2000/svg"
   xmlns="http://www.w3.org/2000/svg"
   xmlns:sodipodi="http://sodipodi.sourceforge.net/DTD/sodipodi-0.dtd"
   xmlns:inkscape="http://www.inkscape.org/namespaces/inkscape"
   id="9af98f83-10c5-4067-bc84-20554b2827d8"
   data-name="Layer 1"
   width="256"
   height="256"
   viewBox="0 0 256.00001 256"
   version="1.1"
   sodipodi:docname="empty.svg"
   inkscape:version="1.0.1 (3bc2e813f5, 2020-09-07)"
   inkscape:export-filename="C:\Users\Emil\Documents\Work\SawayoStuff\empty_256.png"
   inkscape:export-xdpi="96.000008"
   inkscape:export-ydpi="96.000008">
  <metadata
     id="metadata424">
    <rdf:RDF>
      <cc:Work
         rdf:about="">
        <dc:format>image/svg+xml</dc:format>
        <dc:type
           rdf:resource="http://purl.org/dc/dcmitype/StillImage" />
        <dc:title>empty</dc:title>
      </cc:Work>
    </rdf:RDF>
  </metadata>
  <sodipodi:namedview
     pagecolor="#ffffff"
     bordercolor="#666666"
     borderopacity="1"
     objecttolerance="10"
     gridtolerance="10"
     guidetolerance="10"
     inkscape:pageopacity="0"
     inkscape:pageshadow="2"
     inkscape:window-width="3200"
     inkscape:window-height="1771"
     id="namedview422"
     showgrid="false"
     inkscape:zoom="4.3092426"
     inkscape:cx="186.26385"
     inkscape:cy="141.91973"
     inkscape:window-x="-9"
     inkscape:window-y="-9"
     inkscape:window-maximized="1"
     inkscape:current-layer="9af98f83-10c5-4067-bc84-20554b2827d8" />
  <defs
     id="defs225">
    <linearGradient
       id="07c62293-c0d3-4921-8e06-4e39241449cd"
       x1="318.22"
       y1="488.45001"
       x2="630.34998"
       y2="488.45001"
       gradientUnits="userSpaceOnUse"
       gradientTransform="matrix(0.25294194,0,0,0.25294194,-24.090732,15.71247)">
      <stop
         offset="0"
         stop-color="gray"
         stop-opacity="0.25"
         id="stop218" />
      <stop
         offset="0.54"
         stop-color="gray"
         stop-opacity="0.12"
         id="stop220" />
      <stop
         offset="1"
         stop-color="gray"
         stop-opacity="0.1"
         id="stop222" />
    </linearGradient>
  </defs>
  <title
     id="title227">empty</title>
  <ellipse
     cx="89.571266"
     cy="217.13014"
     rx="44.543079"
     ry="8.4381437"
     fill="#0e0e4c"
     opacity="0.1"
     id="ellipse229"
     style="stroke-width:0.252942" />
  <path
     d="M 148.36003,57.809598 C 131.98962,57.243008 116.39828,51.956522 101.51012,46.174269 86.621957,40.392016 71.875442,33.987525 55.897099,30.924399 45.620068,28.953981 33.865856,28.673215 25.587065,34.177232 c -7.9702,5.311781 -10.545149,14.455632 -11.928742,22.946894 -1.04212,6.389313 -1.654239,13.115039 1.198945,19.097116 1.983065,4.153307 5.498958,7.643906 7.93226,11.622683 8.465967,13.840985 2.481361,30.909505 -6.690315,44.424195 -4.300013,6.33873 -9.2956158,12.39416 -12.6167436,19.13505 -3.32112767,6.74091 -4.8564853,14.49105 -1.9501823,21.38625 2.8784793,6.82943 9.7407939,11.94897 17.1747579,15.55339 15.098104,7.32268 32.882453,9.41704 50.236799,10.60587 38.404176,2.62553 77.010706,1.48983 115.516056,0.34906 14.25075,-0.41989 28.56221,-0.84736 42.58025,-3.05048 7.78555,-1.22425 15.82152,-3.16684 21.47477,-7.85639 7.17343,-5.95172 8.95161,-16.02893 4.14319,-23.49071 -8.06379,-12.52062 -30.35304,-15.62929 -35.99617,-29.06303 -3.10106,-7.39602 0.0834,-15.63181 4.59343,-22.48907 9.6725,-14.713632 25.88354,-27.62126 26.73595,-44.43684 0.58683,-11.549329 -7.20631,-23.116364 -19.25646,-28.58244 -12.62939,-5.729135 -30.14562,-5.008251 -39.45894,4.474543 -9.59915,9.753441 -26.46026,13.509629 -40.91589,13.006275 z"
     fill="#0e0e4c"
     opacity="0.1"
     id="path231"
     style="stroke-width:0.252942" />
  <path
     d="m 135.35122,121.13108 -7.74761,-5.22325 v 0 l 3.90795,-5.81766 -20.463,-1.63148 -7.35302,5.68614 -9.204559,-5.16002 -7.676788,0.92324 -0.09106,-2.02354 a 57.109232,57.109232 0 0 0 -0.634885,-6.29825 c 0.03288,-0.63236 0.05565,-1.3583 0.05312,-2.147477 0,-3.326187 -0.450237,-7.734964 -2.428244,-10.67415 l 0.455296,-4.092601 -3.692953,-4.363248 a 27.917202,27.917202 0 0 1 2.023537,-3.404599 c 0.12647,-0.182118 0.252941,-0.359177 0.38953,-0.531177 4.79325,-0.346532 8.574732,-4.287367 8.574732,-9.10591 0,-0.222589 0,-0.445179 -0.02529,-0.665238 0,-0.08852 -0.01771,-0.179589 -0.02783,-0.268118 0.467942,0.252942 0.940944,0.505883 1.413946,0.758826 0.08853,0.12647 0.189706,0.252942 0.301001,0.402177 v 0 l 0.02277,0.02783 0.141648,0.17453 0.04552,0.05312 c 0.05059,0.06071 0.103707,0.118883 0.156824,0.179589 l 0.03541,0.04048 c 0.134059,0.149235 0.275706,0.301001 0.427472,0.450236 a 0.4552955,0.4552955 0 0 1 0.05059,0.04806 l 0.189706,0.177059 0.05312,0.04806 c 0.161883,0.144177 0.333882,0.283295 0.505883,0.414825 l 0.05565,0.04048 0.21753,0.149235 0.07082,0.04552 c 0.08348,0.05059 0.169471,0.103707 0.252942,0.151766 l 0.03035,0.01771 c 0.09865,0.05312 0.199824,0.103707 0.301001,0.151765 l 0.05058,0.02023 q 0.129,0.05565 0.252943,0.106232 l 0.07841,0.02783 c 0.08853,0.03035 0.17453,0.05817 0.26559,0.08347 l 0.05565,0.01518 c 0.111294,0.02783 0.222589,0.05059 0.336412,0.06829 h 0.01265 a 2.7520083,2.7520083 0 0 0 0.323766,0.03288 h 0.07335 a 2.7823613,2.7823613 0 0 0 0.290883,0 h 0.06323 a 2.997362,2.997362 0 0 0 0.361707,-0.043 3.9914239,3.9914239 0 0 0 1.593534,-0.57165 1.3911807,1.3911807 0 0 0 0.323765,-0.301 c 0.505881,-0.662708 -0.05059,-1.388651 -0.05059,-1.388651 v 0 c -0.197294,-0.470472 -1.477181,-0.801826 -1.477181,-0.801826 0,0 -4.047071,-1.689652 -4.047071,-3.035304 0,-1.345651 -1.011768,-8.326848 -11.455741,-9.922912 0,0 -6.79402,-0.381943 -8.703732,3.255363 l -0.04048,0.424942 c -0.561531,0.35159 -1.026944,1.057298 -1.580887,1.26471 a 2.5825373,2.5825373 0 0 0 -0.685473,0.252942 v -0.04806 0 a 0.65259021,0.65259021 0 0 0 -0.154294,0.199824 2.0235355,2.0235355 0 0 0 -0.209942,0.758826 2.8582439,2.8582439 0 0 1 -0.331354,0.91818 2.0412415,2.0412415 0 0 1 -0.151765,0.232706 v 0 l -0.043,0.06829 a 1.8464762,1.8464762 0 0 0 0.860003,-0.139118 4.2823071,4.2823071 0 0 1 -0.252942,1.011767 0.83976726,0.83976726 0 0 0 0.779061,-0.465412 v -0.02023 l 0.03288,-0.04552 a 2.13483,2.13483 0 0 0 0.156839,-0.36677 l -0.02783,0.03035 c 0.05059,-0.164412 0.09612,-0.331354 0.151766,-0.493237 a 0.77400235,0.77400235 0 0 1 0.123941,-0.252941 0.6121195,0.6121195 0 0 1 0.52359,-0.17453 l -0.103707,2.193006 h 0.04552 a 2.9923032,2.9923032 0 0 1 -0.222589,0.460354 c -0.359178,0.581766 -1.011768,0.978885 -1.252063,1.616299 a 2.3776542,2.3776542 0 0 0 -0.116354,0.956121 c 0,0.189706 0.02277,0.381942 0.03794,0.571649 v -0.01518 c 0.03541,0.505884 0.04554,0.986474 -0.227648,1.39371 -0.187177,0.278236 -0.488177,0.488178 -0.591884,0.804356 a 0.78412003,0.78412003 0 0 0 -0.03794,0.273177 3.0681857,3.0681857 0 0 0 0.172,0.811944 0.03541187,0.03541187 0 0 0 0,-0.01518 1.2343567,1.2343567 0 0 1 0.043,0.596943 c -0.113823,0.505883 -0.728472,0.928296 -0.69812,1.411415 a 0.54382518,0.54382518 0 0 0 0.02783,0.187178 1.0244149,1.0244149 0 0 0 0.571648,0.505883 2.2258891,2.2258891 0 0 0 1.284946,0.283295 1.6896521,1.6896521 0 0 0 0.48059,-0.164412 c -0.17706,0.407236 -0.359178,0.809414 -0.543826,1.191357 -0.02783,0.06071 -0.05818,0.121412 -0.08852,0.182118 0,0 -1.563182,-1.044651 -2.451008,1.085121 a 4.7249555,4.7249555 0 0 0 -0.548884,1.426592 3.3944808,3.3944808 0 0 1 -0.187177,0.586826 3.7764232,3.7764232 0 0 1 -1.689652,1.517651 c -1.811064,0.82965 -9.126146,9.953266 -9.255146,12.315744 a 13.782807,13.782807 0 0 1 -0.465414,2.726714 16.226226,16.226226 0 0 0 -0.435059,6.44749 12.335978,12.335978 0 0 0 0.447707,2.056418 c 0.776532,2.35995 1.295063,6.76367 1.295063,6.76367 l 0.839767,7.6439 a 21.753007,21.753007 0 0 0 0.136589,3.15925 c -0.857473,0.97888 -4.300013,5.05884 -2.984716,6.16925 1.011768,0.87518 2.782363,0.731 3.776424,0.55142 -0.837238,2.07159 -2.155065,5.67348 -2.329595,8.14726 -0.252942,3.66006 0.43253,8.50896 1.517652,10.37061 1.08512,1.86166 4.70219,6.6372 4.70219,6.6372 0,0 -0.169471,6.55119 1.123063,8.93138 1.292532,2.38018 1.813593,7.31761 1.813593,7.31761 0,0 1.206533,4.16849 0.602001,5.70132 -0.604531,1.53282 1.120533,2.80765 -0.690531,3.82701 -1.811064,1.01935 -4.128012,23.99406 -4.128012,23.99406 0,0 -0.933356,15.05764 0,15.82406 a 0.94853229,0.94853229 0 0 0 0.159354,0.0935 v 5.05884 c 0,0 -0.647532,1.06236 1.985594,1.27736 1.803476,0.14417 6.915432,0.47046 9.948206,0.66017 l 2.34983,0.14671 c 0,0 5.564724,1.10789 8.023319,0 2.458596,-1.10788 6.816786,-1.08259 6.169255,-4.00913 a 8.3268488,8.3268488 0 0 0 -0.344002,-1.17112 c -0.710767,-1.81612 -1.917299,-2.02354 -4.140659,-2.52941 -0.129001,-0.0278 -0.252942,-0.0532 -0.366766,-0.0733 -2.342243,-0.40725 -3.111186,0.68293 -4.423955,-0.73608 -1.140768,-1.22676 -4.773014,-2.60024 -6.0099,-3.0353 0.03035,-0.0911 0.06829,-0.17958 0.09865,-0.27317 a 1.851535,1.851535 0 0 1 -0.938415,-0.45783 l 3.351481,0.21248 1.995712,0.12394 c 0,0 4.730014,0.94347 6.829432,0 2.099418,-0.94348 5.792371,-0.91818 5.240957,-3.4046 a 7.1354922,7.1354922 0 0 0 -0.290882,-0.99659 c -0.604531,-1.54295 -1.631476,-1.71242 -3.520952,-2.13989 -0.108766,-0.0228 -0.209943,-0.0455 -0.311119,-0.0633 -1.990653,-0.34653 -2.643244,0.57924 -3.758718,-0.62476 -0.95612,-1.02695 -3.973717,-2.17784 -5.058838,-2.5699 0,-0.56153 -0.758826,-1.36083 -1.236886,-2.16265 -0.561531,-0.93588 0.475531,-4.21148 0.475531,-4.21148 l 0.591883,-13.59058 a 2.6255374,2.6255374 0 0 1 0.708239,-0.20235 c 0,0 2.676125,-2.55471 2.071594,-5.27636 a 17.485877,17.485877 0 0 1 -0.192237,-2.48643 c 0.880238,-0.817 2.091831,-2.02353 2.435831,-2.76718 0.561531,-1.21159 0,-7.08238 0,-7.08238 v -22.44859 l 4.477073,0.45276 4.062248,0.41736 1.236886,0.12647 4.062248,0.40976 9.336091,0.94347 8.41284,-1.59353 3.63984,-0.688 7.48455,-1.41647 v -18.31292 z m -61.619185,-60.683297 -0.52106,-0.05565 c 0.172001,0.0076 0.354119,0.04048 0.52106,0.05565 z"
     fill="url(#07c62293-c0d3-4921-8e06-4e39241449cd)"
     id="path233"
     style="fill:url(#07c62293-c0d3-4921-8e06-4e39241449cd);stroke-width:0.252942" />
  <path
     d="m 117.19252,133.02189 c -2.52942,3.61959 -11.62268,1.7023 -11.62268,1.7023 l -7.046965,-6.5942 -0.948532,-0.89289 1.591004,-3.3793 c 0,0 0.505885,0.13912 1.373473,0.387 4.55549,1.32289 18.78853,5.73419 16.6537,8.77709 z"
     fill="#efb7b9"
     id="path235"
     style="stroke-width:0.252942" />
  <path
     d="m 100.53376,124.2448 c -0.31112,1.08259 -1.163529,2.70395 -2.010885,3.88519 l -0.948532,-0.89289 1.591004,-3.3793 c 0,0 0.510944,0.13912 1.368413,0.387 z"
     opacity="0.1"
     id="path237"
     style="stroke-width:0.252942" />
  <path
     d="m 76.365161,86.136567 c 0,0 -6.495549,2.881009 -6.176843,9.955794 a 116.64165,116.64165 0 0 0 1.4873,13.598159 c 0,0 -1.327946,10.64633 4.201366,13.39075 5.52931,2.74442 10.646326,5.00066 10.646326,5.00066 0,0 8.650614,0.93082 9.725618,1.3153 1.075002,0.38447 4.434072,-5.4939 3.814362,-6.40955 -0.619706,-0.91565 -8.559553,-2.83548 -9.571321,-4.36325 -1.011769,-1.52777 -3.351481,-2.47124 -3.351481,-2.47124 0,0 -2.415595,-1.46201 -2.580007,-2.78236 -0.164414,-1.32036 0.473,-2.30431 0.634883,-2.88354 0.161883,-0.57924 0.571649,-6.17179 0.571649,-6.17179 0,0 2.726714,-19.906527 -9.401852,-18.178933 z"
     fill="#dce6f2"
     id="path239"
     style="stroke-width:0.252942" />
  <path
     d="m 80.652527,109.39964 c 0,0 -8.911145,1.49235 -8.048613,4.61113 0,0 3.235128,-3.36666 8.048613,-4.61113 z"
     opacity="0.1"
     id="path241"
     style="stroke-width:0.252942" />
  <path
     d="m 80.720822,110.66182 c 0,0 -4.899486,3.99901 -3.940836,4.20389 0.95865,0.20489 3.940836,-4.20389 3.940836,-4.20389 z"
     opacity="0.1"
     id="path243"
     style="stroke-width:0.252942" />
  <path
     d="m 83.07571,112.05553 c 0,0 -1.312768,2.68877 -0.505883,2.50665 0.806884,-0.18212 0.505883,-2.50665 0.505883,-2.50665 z"
     opacity="0.1"
     id="path245"
     style="stroke-width:0.252942" />
  <path
     d="m 100.86259,124.53062 -0.5413,-0.15429 c 0.1543,-0.50589 0.1973,-0.91565 0.0708,-1.10536 -0.619707,-0.91565 -8.554496,-2.83295 -9.563734,-4.36325 -1.009239,-1.53029 -3.351481,-2.47124 -3.351481,-2.47124 0,0 -2.415595,-1.462 -2.580008,-2.78236 -0.164412,-1.32036 0.473002,-2.3043 0.634884,-2.88354 0.161883,-0.57923 0.57165,-6.17431 0.57165,-6.17431 0,0 2.719126,-19.904003 -9.409442,-18.176408 0,0 -6.495548,2.883538 -6.17937,9.958323 a 116.31535,116.31535 0 0 0 1.489827,13.598155 c 0,0 -1.327945,10.64633 4.201366,13.39075 5.52931,2.74442 10.646326,5.00066 10.646326,5.00066 0,0 8.648085,0.9283 9.725618,1.3153 0.407237,0.14671 1.143297,-0.60959 1.864182,-1.64918 l 0.409766,0.38194 7.046966,6.59167 c 0,0 9.09325,1.91983 11.62267,-1.69977 2.13737,-3.04542 -12.09315,-7.45673 -16.65875,-8.77709 z"
     opacity="0.1"
     id="path247"
     style="stroke-width:0.252942" />
  <path
     d="m 72.626679,59.582722 a 2.1500065,2.1500065 0 0 0 -0.700649,0.270647 c -0.252941,0.209942 -0.252941,0.56912 -0.316178,0.882767 a 2.9037735,2.9037735 0 0 1 -0.505883,1.209063 1.8186526,1.8186526 0 0 0 0.842296,-0.139118 4.335425,4.335425 0 0 1 -0.252941,1.011767 0.8195319,0.8195319 0 0 0 0.758826,-0.462883 4.8716619,4.8716619 0 0 0 0.316176,-0.887826 0.73100222,0.73100222 0 0 1 0.121412,-0.252943 c 0.232707,-0.275706 0.665239,-0.151764 1.024416,-0.116353 a 1.682064,1.682064 0 0 0 1.537886,-0.738591 c 0.381944,-0.579237 0.404708,-2.061476 -0.505883,-2.2183 -0.951061,-0.156824 -1.542946,1.153415 -2.319478,1.44177 z"
     fill="#965d7b"
     id="path249"
     style="stroke-width:0.252942" />
  <g
     opacity="0.1"
     id="g257"
     transform="matrix(0.25294194,0,0,0.25294194,-0.00307054,29.631865)">
    <path
       d="m 379.5,175.74 c 0.09,-0.49 0.15,-1 0.26,-1.49 v 0 c -0.95,0.83 -1,2.24 -1.25,3.49 a 11,11 0 0 1 -0.59,2.11 11.46,11.46 0 0 0 1.58,-4.11 z"
       transform="translate(-95.23,-55.03)"
       id="path251" />
    <path
       d="m 379.82,184 a 16.63,16.63 0 0 0 1,-4 7.16,7.16 0 0 1 -3.17,0.55 11.57,11.57 0 0 1 -1.15,2 7.12,7.12 0 0 0 3.32,-0.54 16.63,16.63 0 0 1 -1,4 3.25,3.25 0 0 0 3,-1.83 7.46,7.46 0 0 0 0.6,-1.43 3,3 0 0 1 -2.6,1.25 z"
       transform="translate(-95.23,-55.03)"
       id="path253" />
    <path
       d="m 388.6,177.2 c -1.42,-0.14 -3.14,-0.63 -4.06,0.46 a 3.09,3.09 0 0 0 -0.48,1 c -0.09,0.26 -0.17,0.53 -0.24,0.8 0.95,-0.75 2.49,-0.35 3.78,-0.22 a 6.68,6.68 0 0 0 6.08,-2.92 5.54,5.54 0 0 0 0.67,-1.57 6.66,6.66 0 0 1 -5.75,2.45 z"
       transform="translate(-95.23,-55.03)"
       id="path255" />
  </g>
  <polygon
     points="332.49,219.34 330.5,237.85 312.07,209 317.24,201 "
     fill="#dce6f2"
     id="polygon259"
     transform="matrix(0.25294194,0,0,0.25294194,-0.00307054,29.631865)" />
  <polygon
     points="312.59,208.19 317.23,201 318.26,202.24 332.48,219.34 330.61,236.75 330.49,237.85 313.86,211.81 312.07,209 "
     opacity="0.1"
     id="polygon261"
     transform="matrix(0.25294194,0,0,0.25294194,-0.00307054,29.631865)" />
  <path
     d="m 86.098367,74.192648 c -1.305181,0.374353 -2.552184,1.659299 -3.637305,3.219951 a 27.482142,27.482142 0 0 0 -1.962829,3.374245 c -0.356648,0.713297 -0.670297,1.398769 -0.930827,1.995712 l -0.182118,0.424942 c -0.440119,1.039592 -0.685472,1.735182 -0.685472,1.735182 0,0 -9.991208,-7.512375 -8.410321,-8.018259 0.531179,-0.169471 1.229299,-1.30771 1.91983,-2.741891 l 0.086,-0.182118 c 0.437589,-0.920709 0.86759,-1.947653 1.249532,-2.913891 0.781591,-1.985595 1.360828,-3.710659 1.360828,-3.710659 0,0 15.176517,5.678547 11.192682,6.816786 z"
     fill="#efb7b9"
     id="path263"
     style="stroke-width:0.252942" />
  <path
     d="m 92.075385,66.953449 c 0,0 2.30683,4.173543 5.405369,3.604423 3.098536,-0.569119 1.823712,-2.241066 1.823712,-2.241066 z"
     fill="#444053"
     id="path265"
     style="stroke-width:0.252942" />
  <path
     d="m 87.605901,211.42124 c -2.04377,0.93336 -6.66502,0 -6.66502,0 l -1.947653,-0.12141 c -2.529419,-0.16188 -6.763668,-0.43506 -8.261083,-0.55647 -2.18542,-0.1796 -1.649183,-1.07501 -1.649183,-1.07501 v -5.41042 l 10.603327,-2.68624 c 0,0 4.191247,1.43418 5.339604,2.68624 1.09018,1.19389 1.727594,0.27571 3.672717,0.6197 0.09612,0.0177 0.197295,0.0379 0.303531,0.0632 1.846476,0.42242 2.848126,0.58936 3.44001,2.11966 a 7.1076686,7.1076686 0 0 1 0.285825,0.98647 c 0.546354,2.46366 -3.080833,2.44595 -5.122075,3.37424 z"
     fill="#a36468"
     id="path267"
     style="stroke-width:0.252942" />
  <path
     d="m 92.442151,207.06052 a 7.9272006,7.9272006 0 0 1 -1.193886,0.61212 c -1.391181,0.63488 -2.714067,1.40889 -4.120424,2.00836 -1.406357,0.59947 -2.92148,1.02695 -4.44419,0.91312 -0.796767,-0.0582 -1.611241,-0.25294 -2.372596,-0.0252 a 5.4787225,5.4787225 0 0 0 -1.317827,0.73101 c -2.529419,-0.16189 -6.763668,-0.43506 -8.261083,-0.55648 -2.18542,-0.17959 -1.649183,-1.07501 -1.649183,-1.07501 v -0.63235 c 0.07842,0 0.166942,-0.0228 0.26812,-0.0304 a 4.7755439,4.7755439 0 0 1 1.542945,0.23019 c 1.097767,0.29847 2.190477,0.59188 3.288245,0.88529 a 2.5977137,2.5977137 0 0 1 1.26471,-1.61377 4.0318946,4.0318946 0 0 1 2.038712,-0.46794 c 1.702299,0.0228 3.31354,0.82965 5.01331,0.91059 a 2.762126,2.762126 0 0 0 1.388651,-0.23271 c 0.232707,-0.11635 0.437589,-0.28582 0.665237,-0.41482 a 4.8564853,4.8564853 0 0 1 1.145826,-0.38701 25.233488,25.233488 0 0 0 3.275599,-1.05729 c 0.30353,-0.11888 0.657649,-0.33389 0.617178,-0.65764 -0.05312,-0.43 -0.728472,-0.4806 -0.905532,-0.87519 a 0.50588389,0.50588389 0 0 1 0.02023,-0.4477 c 0.09612,0.0177 0.197294,0.0379 0.30353,0.0632 1.838888,0.42241 2.840538,0.58935 3.432421,2.11965 z"
     opacity="0.1"
     id="path269"
     style="stroke-width:0.252942" />
  <path
     d="m 85.445777,223.25893 c -2.402948,1.09777 -7.8412,0 -7.8412,0 l -2.289125,-0.13406 c -2.96448,-0.18971 -7.957553,-0.50589 -9.720559,-0.65512 -2.57242,-0.21248 -1.940064,-1.26472 -1.940064,-1.26472 v -6.37666 l 12.477625,-3.16178 c 0,0 4.932369,1.68713 6.283078,3.16178 1.282416,1.40383 2.023536,0.32377 4.322778,0.72847 0.113824,0.0202 0.232707,0.0455 0.356648,0.0733 2.172772,0.50589 3.351481,0.69559 4.047072,2.49654 a 8.1194364,8.1194364 0 0 1 0.336412,1.16101 c 0.627297,2.89871 -3.629717,2.87594 -6.032665,3.97119 z"
     fill="#a36468"
     id="path271"
     style="stroke-width:0.252942" />
  <path
     d="m 91.13697,218.12673 a 9.4170286,9.4170286 0 0 1 -1.403827,0.72089 c -1.636535,0.74618 -3.194657,1.65677 -4.848897,2.36247 -1.654241,0.70571 -3.437481,1.20654 -5.23084,1.07501 -0.935884,-0.0683 -1.894534,-0.30353 -2.782361,-0.0304 a 6.4500195,6.4500195 0 0 0 -1.555593,0.87012 c -2.96448,-0.18971 -7.957553,-0.50589 -9.720559,-0.65512 -2.57242,-0.21248 -1.940064,-1.26472 -1.940064,-1.26472 v -0.74365 a 3.1617743,3.1617743 0 0 1 0.316177,-0.0354 5.5495462,5.5495462 0 0 1 1.816123,0.27066 l 3.867483,1.04212 a 3.0605976,3.0605976 0 0 1 1.499945,-1.89959 4.7198967,4.7198967 0 0 1 2.40042,-0.55142 c 2.0033,0.0278 3.897834,0.97635 5.898605,1.07248 a 3.2654805,3.2654805 0 0 0 1.628947,-0.27066 c 0.275707,-0.13911 0.505883,-0.33894 0.784119,-0.48817 a 5.5014872,5.5014872 0 0 1 1.348181,-0.45529 30.274621,30.274621 0 0 0 3.8346,-1.24448 c 0.356648,-0.14166 0.774003,-0.3946 0.725943,-0.77401 -0.06323,-0.50588 -0.857473,-0.56658 -1.067415,-1.032 a 0.60959008,0.60959008 0 0 1 0.02529,-0.52612 c 0.113824,0.0202 0.232707,0.0455 0.356648,0.0733 2.172772,0.48565 3.351481,0.68294 4.047071,2.48389 z"
     opacity="0.1"
     id="path273"
     style="stroke-width:0.252942" />
  <path
     d="m 80.007525,179.5025 -0.675355,15.89234 c 0,0 -1.011767,3.24524 -0.462884,4.17354 0.548885,0.9283 1.474652,1.85406 1.138239,2.40295 -0.336413,0.54888 -4.383484,6.4829 -5.691193,4.20643 -1.307711,-2.27648 -2.597714,-12.14122 -2.597714,-12.14122 l 1.206533,-12.18421 z"
     fill="#444053"
     id="path275"
     style="stroke-width:0.252942" />
  <path
     d="m 82.936592,139.90697 1.87683,2.50918 v 21.82383 c 0,0 0.548884,5.81766 0,7.01913 -0.548884,1.20148 -3.331245,3.60443 -3.331245,3.60443 l -2.339713,-12.01474 0.505883,-12.71033 z"
     fill="#444053"
     id="path277"
     style="stroke-width:0.252942" />
  <path
     d="m 80.007525,179.5025 -0.675355,15.89234 c 0,0 -1.011767,3.24524 -0.462884,4.17354 0.548885,0.9283 1.474652,1.85406 1.138239,2.40295 -0.336413,0.54888 -4.383484,6.4829 -5.691193,4.20643 -1.307711,-2.27648 -2.597714,-12.14122 -2.597714,-12.14122 l 1.206533,-12.18421 z"
     opacity="0.1"
     id="path279"
     style="stroke-width:0.252942" />
  <path
     d="m 82.936592,139.90697 1.87683,2.50918 v 21.82383 c 0,0 0.548884,5.81766 0,7.01913 -0.548884,1.20148 -3.331245,3.60443 -3.331245,3.60443 l -2.339713,-12.01474 0.505883,-12.71033 z"
     opacity="0.1"
     id="path281"
     style="stroke-width:0.252942" />
  <path
     d="m 84.813422,130.5987 v 11.8048 l -2.107006,9.18938 c 0,0 -0.675356,22.17543 -0.086,24.87179 0.589354,2.69636 -2.023536,5.22831 -2.023536,5.22831 0,0 -1.517651,0.16946 -1.517651,1.34818 0,1.17871 -2.529421,4.55295 -2.529421,4.55295 l 0.08348,6.57649 c 0,0 1.097769,12.31068 -0.589354,14.67063 -1.687122,2.35995 0.589354,2.6989 0.589354,2.6989 -2.107006,6.91289 -12.224683,5.31177 -13.137804,4.55295 -0.91312,-0.75882 0,-15.6824 0,-15.6824 0,0 2.261301,-22.76478 4.031894,-23.77655 1.770595,-1.01176 0.086,-2.27647 0.675356,-3.79413 0.589355,-1.51764 -0.589355,-5.64819 -0.589355,-5.64819 0,0 -0.505884,-4.89189 -1.770594,-7.25184 -1.264709,-2.35995 -1.097768,-8.85297 -1.097768,-8.85297 0,0 -3.541187,-4.72243 -4.593425,-6.57649 -1.052239,-1.85407 -1.730123,-6.65997 -1.477181,-10.28715 0.172001,-2.45101 1.459475,-6.02002 2.276478,-8.07391 0.392059,-0.98394 0.675354,-1.62136 0.675354,-1.62136 l 0.240295,0.0632 13.815689,3.61707 z"
     fill="#444053"
     id="path283"
     style="stroke-width:0.252942" />
  <path
     d="m 86.098367,74.192648 c -1.305181,0.374353 -2.552184,1.659299 -3.637305,3.219951 h -0.283295 a 9.0350862,9.0350862 0 0 1 -7.8412,-4.535249 8.8984976,8.8984976 0 0 1 -0.794238,-1.808535 c 0.781591,-1.985595 1.360828,-3.710659 1.360828,-3.710659 0,0 15.179046,5.696253 11.19521,6.834492 z"
     opacity="0.1"
     id="path285"
     style="stroke-width:0.252942" />
  <path
     d="m 91.220441,67.869099 a 9.0426745,9.0426745 0 1 1 -16.916757,-4.431543 8.8352621,8.8352621 0 0 1 0.956121,-1.381063 9.1514395,9.1514395 0 0 1 2.079183,-1.82624 9.0426745,9.0426745 0 0 1 13.868807,6.976139 c 0.005,0.222588 0.01265,0.442648 0.01265,0.662707 z"
     fill="#efb7b9"
     id="path287"
     style="stroke-width:0.252942" />
  <path
     d="m 83.622066,89.51587 -0.03035,0.278236 -4.206424,-6.576489 c -0.440119,1.039591 -0.685472,1.735181 -0.685472,1.735181 0,0 -9.991208,-7.522493 -8.410321,-8.028377 0.531179,-0.169471 1.229299,-1.30771 1.91983,-2.741891 l 0.086,-0.182118 c 0.73353,2.185418 4.995602,6.553726 6.768726,8.304084 0.204882,0.202353 0.374354,0.369296 0.505883,0.490708 l 0.270649,0.252941 0.141647,0.141647 c 0.645002,0.665238 3.366657,3.599364 3.639836,6.326078 z"
     opacity="0.1"
     id="path289"
     style="stroke-width:0.252942" />
  <path
     d="m 86.766134,111.83041 -0.460354,14.81481 -0.08094,2.63818 c 0,0 -5.453428,-0.50588 -10.54262,-1.06235 -4.09766,-0.44771 -7.960083,-0.93083 -8.554497,-1.21412 -0.758826,-0.35665 -2.385242,-0.63236 -3.667658,-0.80689 -0.991532,-0.13406 -1.770593,-0.20488 -1.770593,-0.20488 0,0 -0.290884,0.086 -0.738591,0.16694 -0.976356,0.17706 -2.691302,0.32124 -3.690423,-0.54636 -1.277357,-1.11041 2.079183,-5.14484 2.916421,-6.1136 l 0.184647,-0.20994 -0.316177,-2.92148 -0.822062,-7.57561 c 0,0 -0.505883,-4.36325 -1.264709,-6.70297 a 12.363802,12.363802 0 0 1 -0.43759,-2.03618 16.309696,16.309696 0 0 1 0.424943,-6.389312 13.932042,13.932042 0 0 0 0.455295,-2.703949 c 0.126472,-2.339713 7.272082,-11.382388 9.042675,-12.204449 a 3.7536585,3.7536585 0 0 0 1.811065,-1.806005 3.4501281,3.4501281 0 0 0 0.275706,-0.78665 c 0.758825,-3.288245 2.678655,-1.983065 2.678655,-1.983065 0.462883,2.57242 7.62873,9.381617 7.62873,9.381617 l 0.141647,0.141647 c 0.710766,0.728474 3.877599,4.148248 3.652481,7.067198 a 8.5671436,8.5671436 0 0 0 0.47806,3.197186 54.066341,54.066341 0 0 1 2.491479,14.164752 z"
     fill="#dce6f2"
     id="path291"
     style="stroke-width:0.252942" />
  <path
     d="m 76.613044,94.238296 c 0,0 -1.770593,4.300013 -3.098538,4.995604 -1.327946,0.695591 3.730893,1.46706 3.098538,-4.995604 z"
     opacity="0.1"
     id="path293"
     style="stroke-width:0.252942" />
  <path
     d="m 77.94099,102.2692 c 0,0 -4.047071,0.50589 -4.047071,1.26471 0,0.75883 4.047071,-1.26471 4.047071,-1.26471 z"
     opacity="0.1"
     id="path295"
     style="stroke-width:0.252942" />
  <path
     d="m 82.177767,107.20157 c 0,0 -5.8809,12.52063 -7.525023,12.90004 -1.644123,0.37941 7.525023,-12.90004 7.525023,-12.90004 z"
     opacity="0.1"
     id="path297"
     style="stroke-width:0.252942" />
  <path
     d="m 79.72676,84.199031 -4.864074,2.114594 -5.870782,-8.868144 a 3.4501281,3.4501281 0 0 0 0.275706,-0.786649 c 0.758826,-3.288245 2.678655,-1.983065 2.678655,-1.983065 0.462884,2.572419 7.628729,9.381617 7.628729,9.381617 z"
     opacity="0.1"
     id="path299"
     style="stroke-width:0.252942" />
  <path
     d="m 79.979702,83.693148 -4.864074,2.114594 -5.870783,-8.868145 a 3.4501281,3.4501281 0 0 0 0.275707,-0.786649 c 0.758826,-3.288246 2.678655,-1.983065 2.678655,-1.983065 0.462884,2.572419 7.628729,9.381616 7.628729,9.381616 z"
     fill="#dce6f2"
     id="path301"
     style="stroke-width:0.252942" />
  <path
     d="m 86.224838,129.2834 c 0,0 -5.453428,-0.50588 -10.54262,-1.06235 l 9.131204,2.3903 v 2.78236 c -0.399649,0.36171 -0.746179,0.54889 -0.971297,0.45277 -1.052239,-0.44265 -9.639617,-1.83383 -9.639617,-1.83383 0,0 -4.988015,-2.52942 -10.37062,-5.56473 a 4.1558362,4.1558362 0 0 1 -0.379413,-0.23776 5.9795475,5.9795475 0 0 1 -1.593534,-1.59607 c -0.994063,-1.43923 -1.479711,-3.28824 -1.689652,-5.10183 a 22.061597,22.061597 0 0 1 -0.13153,-3.13143 25.676137,25.676137 0 0 1 0.323765,-3.53865 116.37353,116.37353 0 0 1 -0.758826,-13.658868 c 0.06323,-7.082374 6.702962,-9.611794 6.702962,-9.611794 12.204449,-1.075003 8.420437,18.654472 8.420437,18.654472 0,0 -0.705708,5.56472 -0.897944,6.13384 -0.192235,0.56912 -0.882767,1.51765 -0.789178,2.84559 0.09359,1.32795 2.425713,2.91643 2.425713,2.91643 0,0 2.276478,1.06741 3.214892,2.6483 0.682943,1.16606 5.119545,2.74695 7.6262,3.87507 z"
     opacity="0.1"
     id="path303"
     style="stroke-width:0.252942" />
  <path
     d="m 90.31238,62.253788 a 2.8633028,2.8633028 0 0 1 -0.252942,1.209063 7.4744344,7.4744344 0 0 1 -0.450237,0.900473 4.1482479,4.1482479 0 0 1 -1.107885,1.376004 c -0.584297,0.417354 -1.322887,0.533708 -2.023536,0.703178 -0.70065,0.169472 -1.429122,0.440119 -1.82877,1.037062 a 3.6271875,3.6271875 0 0 0 -0.427472,1.239416 2.6660081,2.6660081 0 0 1 -0.505884,1.198945 0.99406184,0.99406184 0 0 1 -1.183769,0.283295 1.1964154,1.1964154 0 0 1 -0.457825,-0.589355 C 81.785707,68.961808 81.712354,68.240924 81.596,67.540274 81.479648,66.839625 81.315235,66.118741 80.885234,65.55468 80.455232,64.99062 79.693877,64.618795 79.018522,64.838854 a 1.7984172,1.7984172 0 0 0 -1.011768,0.981415 5.6254288,5.6254288 0 0 0 -0.381942,1.39624 q -0.470473,2.574949 -1.110415,5.119545 a 0.47047201,0.47047201 0 0 1 -0.08348,0.192236 0.3642364,0.3642364 0 0 1 -0.252941,0.106232 c -0.566587,0.07589 -1.110412,-0.321233 -1.68206,-0.278233 a 0.96623823,0.96623823 0 0 0 -0.174531,0.02782 9.0376156,9.0376156 0 0 1 0.913121,-10.32003 l 0.04552,-0.01265 a 2.7267142,2.7267142 0 0 0 1.011767,-0.637414 10.679209,10.679209 0 0 0 1.011769,-1.17112 l 0.202353,-0.252943 a 11.536683,11.536683 0 0 1 1.972948,-1.8743 2.0235355,2.0235355 0 0 1 0.672824,-0.364236 1.9931825,1.9931825 0 0 1 0.637414,-0.02023 16.07952,16.07952 0 0 0 2.633126,0.09865 16.893992,16.893992 0 0 1 1.849006,-0.187176 c 1.601122,0.04553 2.967008,1.176179 3.978777,2.415594 0.543825,0.634885 1.029473,1.365888 1.062356,2.195537 z"
     opacity="0.1"
     id="path305"
     style="stroke-width:0.252942" />
  <path
     d="m 73.122445,63.677851 c -0.351589,0.576708 -0.986473,0.968768 -1.224238,1.601122 -0.349061,0.91818 0.240294,2.061477 -0.301001,2.881009 -0.179589,0.275707 -0.475531,0.48059 -0.576708,0.796767 -0.172001,0.533708 0.298471,1.102827 0.177059,1.651712 -0.121412,0.548883 -0.844825,1.011767 -0.65259,1.548004 a 1.0117678,1.0117678 0 0 0 0.556472,0.505884 2.1753007,2.1753007 0 0 0 1.26471,0.280765 c 0.690532,-0.113823 1.204003,-0.791707 1.904652,-0.842296 0.56912,-0.04048 1.112945,0.354119 1.679535,0.280765 a 0.37941291,0.37941291 0 0 0 0.252942,-0.108764 0.43758956,0.43758956 0 0 0 0.08348,-0.192237 q 0.637414,-2.542066 1.112945,-5.119545 a 5.5141344,5.5141344 0 0 1 0.379413,-1.396238 1.8135937,1.8135937 0 0 1 1.011767,-0.981415 c 0.675356,-0.21753 1.434182,0.151764 1.866713,0.715825 0.43253,0.56406 0.596942,1.284946 0.713295,1.985595 0.116354,0.700649 0.189707,1.421533 0.475531,2.071594 a 1.2090625,1.2090625 0 0 0 0.460355,0.591884 c 0.379413,0.22006 0.890355,0.04552 1.181239,-0.283296 a 2.6381844,2.6381844 0 0 0 0.505883,-1.201474 3.612011,3.612011 0 0 1 0.427473,-1.236885 c 0.399648,-0.596943 1.13065,-0.867591 1.82877,-1.037062 0.698119,-0.169472 1.434181,-0.288355 2.023535,-0.705708 a 4.1634244,4.1634244 0 0 0 1.107886,-1.373475 c 0.374354,-0.652591 0.723414,-1.360828 0.693061,-2.112066 -0.03288,-0.819532 -0.518532,-1.550533 -1.037063,-2.187947 -1.011767,-1.239416 -2.380183,-2.370066 -3.981306,-2.413067 a 15.732989,15.732989 0 0 0 -1.849005,0.187178 15.826578,15.826578 0 0 1 -2.633126,-0.101171 2.0690651,2.0690651 0 0 0 -0.637413,0.02277 1.9071822,1.9071822 0 0 0 -0.670297,0.364237 11.541741,11.541741 0 0 0 -1.975476,1.871771 14.496102,14.496102 0 0 1 -1.219181,1.416474 2.74442,2.74442 0 0 1 -1.011767,0.639943 c -0.252942,0.07083 -0.505883,0.02023 -0.746178,0.09865 -0.74618,0.235236 -0.844827,1.209063 -1.191357,1.780711 z"
     fill="#965d7b"
     id="path307"
     style="stroke-width:0.252942" />
  <path
     d="m 97.480754,70.555343 c -2.023535,0.371825 -3.70054,-1.26471 -4.628837,-2.458596 a 9.9203831,9.9203831 0 0 1 -0.776532,-1.143298 l 6.945786,1.310239 0.280765,0.05312 c 0,0 1.277354,1.671946 -1.821182,2.238535 z"
     opacity="0.1"
     id="path309"
     style="stroke-width:0.252942" />
  <g
     opacity="0.1"
     id="g317"
     transform="matrix(0.25294194,0,0,0.25294194,-0.00307054,29.631865)">
    <path
       d="m 376.72,214.17 a 8.33,8.33 0 0 0 -0.58,-3.84 c 0,0.1 -0.09,0.2 -0.12,0.3 -0.43,1.34 0.15,2.73 0.52,4.12 a 3,3 0 0 0 0.18,-0.58 z"
       transform="translate(-95.23,-55.03)"
       id="path311" />
    <path
       d="m 379.1,197.8 a 22.22,22.22 0 0 0 0.08,4.15 22.28,22.28 0 0 0 -0.08,-4.15 z"
       transform="translate(-95.23,-55.03)"
       id="path313" />
    <path
       d="m 448.55,188.45 a 16.4,16.4 0 0 1 -4.38,5.44 c -2.31,1.65 -5.22,2.11 -8,2.78 -2.78,0.67 -5.65,1.74 -7.23,4.1 a 14.41,14.41 0 0 0 -1.69,4.9 10.47,10.47 0 0 1 -2,4.75 c -1.15,1.3 -3.17,2 -4.67,1.12 a 4.78,4.78 0 0 1 -1.82,-2.34 c -1.13,-2.57 -1.43,-5.41 -1.88,-8.19 -0.45,-2.78 -1.12,-5.62 -2.82,-7.85 -1.7,-2.23 -4.71,-3.7 -7.38,-2.83 a 7.14,7.14 0 0 0 -4,3.88 21.8,21.8 0 0 0 -1.5,5.52 q -1.87,10.19 -4.4,20.24 a 1.73,1.73 0 0 1 -0.33,0.76 1.5,1.5 0 0 1 -1,0.43 c -2.24,0.29 -4.39,-1.27 -6.64,-1.11 -2.77,0.2 -4.8,2.88 -7.53,3.32 a 8.45,8.45 0 0 1 -5,-1.11 5.35,5.35 0 0 1 -1.83,-1.3 2.7,2.7 0 0 0 -0.37,2.33 3.9,3.9 0 0 0 2.2,2 8.45,8.45 0 0 0 5,1.11 c 2.73,-0.44 4.76,-3.12 7.53,-3.32 2.25,-0.16 4.4,1.4 6.64,1.11 a 1.5,1.5 0 0 0 1,-0.43 1.73,1.73 0 0 0 0.33,-0.76 q 2.52,-10 4.4,-20.24 a 21.8,21.8 0 0 1 1.5,-5.52 7.14,7.14 0 0 1 4,-3.88 c 2.67,-0.87 5.67,0.6 7.38,2.83 1.71,2.23 2.36,5.08 2.82,7.85 0.46,2.77 0.75,5.62 1.88,8.19 a 4.78,4.78 0 0 0 1.82,2.34 c 1.5,0.87 3.52,0.18 4.67,-1.12 a 10.47,10.47 0 0 0 2,-4.75 14.41,14.41 0 0 1 1.69,-4.9 c 1.58,-2.36 4.47,-3.42 7.23,-4.1 2.76,-0.68 5.67,-1.13 8,-2.78 a 16.4,16.4 0 0 0 4.38,-5.44 c 1.48,-2.57 2.86,-5.37 2.74,-8.34 a 10.74,10.74 0 0 0 -0.12,-1.14 19.65,19.65 0 0 1 -2.62,6.45 z"
       transform="translate(-95.23,-55.03)"
       id="path315" />
  </g>
  <path
     d="m 90.069556,63.455262 a 8.9364389,8.9364389 0 0 1 1.125591,3.756188 c -2.253712,-1.264709 -4.373365,-2.653361 -5.44331,-3.13648 -1.864182,-0.842297 -8.835262,-0.715826 -11.455741,-0.637414 a 8.8352621,8.8352621 0 0 1 0.95612,-1.381063 9.1514395,9.1514395 0 0 1 2.086772,-1.82624 9.0477334,9.0477334 0 0 1 12.743215,3.219951 z"
     opacity="0.1"
     id="path319"
     style="stroke-width:0.252942" />
  <path
     d="m 98.11311,69.482868 c -1.216651,0.374355 -3.202245,-0.349059 -5.261193,-1.386121 a 9.9203831,9.9203831 0 0 1 -0.776532,-1.143298 l 6.945786,1.310239 c 0.460354,0.313649 0.576708,0.761355 -0.908061,1.21918 z"
     opacity="0.1"
     id="path321"
     style="stroke-width:0.252942" />
  <path
     d="m 82.716533,54.685765 c 0,0 -6.639725,-0.379413 -8.506438,3.22501 l -0.301,3.194657 -0.505884,-0.05565 -0.101182,2.172771 c 0,0 10.148031,-0.442649 12.457391,0.599472 2.30936,1.042121 9.485323,6.293196 12.361272,5.407899 2.875948,-0.885297 -0.252941,-1.707359 -0.252941,-1.707359 0,0 -3.958542,-1.677004 -3.958542,-2.992302 0,-1.315299 -0.981414,-8.263614 -11.192681,-9.844501 z"
     fill="#444053"
     id="path323"
     style="stroke-width:0.252942" />
  <path
     d="m 69.910082,173.11319 c 0,0 4.236778,4.1103 6.070608,3.79412 0,0 -5.18531,-0.44264 -6.070608,-3.79412 z"
     opacity="0.1"
     id="path325"
     style="stroke-width:0.252942" />
  <path
     d="m 69.024786,175.01784 c 0,0 0.379413,2.1146 1.391181,1.90718 1.011767,-0.20741 -1.391181,-1.90718 -1.391181,-1.90718 z"
     opacity="0.1"
     id="path327"
     style="stroke-width:0.252942" />
  <path
     d="m 75.664512,210.35888 c 0,0 -6.01496,4.67943 -5.000662,4.8059 1.014297,0.12648 5.000662,-4.8059 5.000662,-4.8059 z"
     opacity="0.1"
     id="path329"
     style="stroke-width:0.252942" />
  <polygon
     points="407.96,334.8 407.96,407.7 334.8,403.87 330.96,347.33 "
     fill="#0e0e4c"
     id="polygon331"
     transform="matrix(0.25294194,0,0,0.25294194,-0.00307054,29.631865)" />
  <polygon
     points="407.96,334.8 407.96,407.7 334.8,403.87 330.96,347.33 "
     opacity="0.05"
     id="polygon333"
     transform="matrix(0.25294194,0,0,0.25294194,-0.00307054,29.631865)" />
  <polygon
     points="500.3,341.71 495.19,405.15 407.96,407.7 407.96,334.8 "
     fill="#0e0e4c"
     id="polygon335"
     transform="matrix(0.25294194,0,0,0.25294194,-0.00307054,29.631865)" />
  <polygon
     points="500.3,341.71 495.19,405.15 407.96,407.7 407.96,334.8 "
     opacity="0.1"
     id="polygon337"
     transform="matrix(0.25294194,0,0,0.25294194,-0.00307054,29.631865)" />
  <polygon
     points="407.96,334.8 500.3,341.71 515.39,318.94 436.35,312.55 "
     fill="#0e0e4c"
     id="polygon339"
     transform="matrix(0.25294194,0,0,0.25294194,-0.00307054,29.631865)" />
  <polygon
     points="372.4,314.59 407.96,334.8 330.96,347.33 303.08,323.03 "
     fill="#0e0e4c"
     id="polygon341"
     transform="matrix(0.25294194,0,0,0.25294194,-0.00307054,29.631865)" />
  <polygon
     points="352.62,445.99 330.96,443.77 330.96,347.33 407.95,352.57 424.84,353.73 424.84,453.4 388.77,449.7 373.08,448.1 368.3,447.6 "
     fill="#0e0e4c"
     id="polygon343"
     transform="matrix(0.25294194,0,0,0.25294194,-0.00307054,29.631865)" />
  <polygon
     points="424.84,353.73 500.3,341.71 500.3,438.91 471.39,444.46 457.33,447.16 424.84,453.4 "
     fill="#0e0e4c"
     id="polygon345"
     transform="matrix(0.25294194,0,0,0.25294194,-0.00307054,29.631865)" />
  <polygon
     points="424.84,353.73 500.3,341.71 500.3,438.91 471.39,444.46 457.33,447.16 424.84,453.4 "
     opacity="0.05"
     id="polygon347"
     transform="matrix(0.25294194,0,0,0.25294194,-0.00307054,29.631865)" />
  <polygon
     points="330.96,347.33 424.84,353.73 411.02,377.01 303.08,368.31 "
     fill="#0e0e4c"
     id="polygon349"
     transform="matrix(0.25294194,0,0,0.25294194,-0.00307054,29.631865)" />
  <polygon
     points="330.96,347.33 424.84,353.73 411.02,377.01 303.08,368.31 "
     fill="#ffffff"
     opacity="0.1"
     id="polygon351"
     transform="matrix(0.25294194,0,0,0.25294194,-0.00307054,29.631865)" />
  <polygon
     points="424.84,353.73 449.4,375.73 530.23,362.17 500.3,341.71 "
     fill="#0e0e4c"
     id="polygon353"
     transform="matrix(0.25294194,0,0,0.25294194,-0.00307054,29.631865)" />
  <polygon
     points="424.84,353.73 449.4,375.73 530.23,362.17 500.3,341.71 "
     fill="#ffffff"
     opacity="0.1"
     id="polygon355"
     transform="matrix(0.25294194,0,0,0.25294194,-0.00307054,29.631865)" />
  <polygon
     points="457.33,447.16 457.33,426.39 470.5,423.07 471.39,444.46 "
     fill="#ffffff"
     opacity="0.1"
     id="polygon357"
     transform="matrix(0.25294194,0,0,0.25294194,-0.00307054,29.631865)" />
  <polygon
     points="388.77,449.7 373.08,448.1 373.08,435.96 388.77,435.96 "
     fill="#ffffff"
     opacity="0.1"
     id="polygon359"
     transform="matrix(0.25294194,0,0,0.25294194,-0.00307054,29.631865)" />
  <polygon
     points="368.3,447.6 352.62,445.99 352.62,440.29 368.3,440.29 "
     fill="#ffffff"
     opacity="0.1"
     id="polygon361"
     transform="matrix(0.25294194,0,0,0.25294194,-0.00307054,29.631865)" />
  <path
     d="m 105.06901,138.06049 c -2.71912,3.47795 -11.698562,1.075 -11.698562,1.075 l -6.672609,-6.96096 -0.905532,-0.94347 1.770594,-3.28825 c 0,0 0.505884,0.16694 1.35071,0.46035 4.472014,1.56319 18.444529,6.73079 16.155399,9.65733 z"
     opacity="0.1"
     id="path363"
     style="stroke-width:0.252942" />
  <path
     d="m 104.81607,137.55461 c -2.71912,3.47794 -11.698564,1.07499 -11.698564,1.07499 l -6.672608,-6.96095 -0.905532,-0.94348 1.770593,-3.28824 c 0,0 0.505884,0.16694 1.350711,0.46035 4.472013,1.56318 18.44453,6.73079 16.1554,9.65733 z"
     fill="#efb7b9"
     id="path365"
     style="stroke-width:0.252942" />
  <path
     d="m 88.650551,127.89728 c -0.369294,1.06236 -1.307709,2.63566 -2.215771,3.77137 l -0.905532,-0.94348 1.770594,-3.28824 c 0,0 0.508413,0.16694 1.350709,0.46035 z"
     opacity="0.1"
     id="path367"
     style="stroke-width:0.252942" />
  <path
     d="m 66.558602,88.55975 c 0,0 -6.639726,2.52942 -6.702962,9.611794 a 116.37353,116.37353 0 0 0 0.758826,13.658866 c 0,0 -1.897064,10.56032 3.477952,13.59563 5.375016,3.0353 10.37062,5.56472 10.37062,5.56472 0,0 8.587379,1.39118 9.642147,1.83383 1.054768,0.44265 4.719897,-5.24854 4.150777,-6.19708 -0.569119,-0.94853 -8.387555,-3.28824 -9.315852,-4.86913 -0.928297,-1.58089 -3.214892,-2.64577 -3.214892,-2.64577 0,0 -2.332124,-1.59101 -2.425713,-2.91895 -0.09359,-1.32795 0.594414,-2.27648 0.789178,-2.8456 0.194766,-0.56912 0.900474,-6.13384 0.900474,-6.13384 0,0 3.773894,-19.742121 -8.430555,-18.65447 z"
     fill="#dce6f2"
     id="path369"
     style="stroke-width:0.252942" />
  <path
     d="m 69.593906,112.00747 c 0,0 -8.97944,1.01177 -8.283849,4.17354 0,0 3.412186,-3.1896 8.283849,-4.17354 z"
     opacity="0.1"
     id="path371"
     style="stroke-width:0.252942" />
  <path
     d="m 69.593906,113.27218 c 0,0 -5.096781,3.73089 -4.160895,3.98383 0.935884,0.25294 4.160895,-3.98383 4.160895,-3.98383 z"
     opacity="0.1"
     id="path373"
     style="stroke-width:0.252942" />
  <path
     d="m 71.870382,114.78983 c 0,0 -1.454415,2.61542 -0.632354,2.47883 0.822061,-0.13659 0.632354,-2.47883 0.632354,-2.47883 z"
     opacity="0.1"
     id="path375"
     style="stroke-width:0.252942" />
  <path
     d="m 165.36279,58.060011 c 0,0 -9.6118,-0.579237 -8.48874,6.164195 0,0 -0.22512,1.191356 0.85494,1.732652 0,0 0.0177,-0.505884 0.98648,-0.331353 a 4.4290134,4.4290134 0 0 0 1.04465,0.05058 2.1677124,2.1677124 0 0 0 1.27989,-0.528648 v 0 c 0,0 2.70395,-1.115474 3.75618,-5.536899 0,0 0.77906,-0.966238 0.75883,-1.214122 l -1.62389,0.695591 c 0,0 0.55395,1.171121 0.11635,2.144947 0,0 -0.0506,-2.101948 -0.36423,-2.053888 -0.0633,0 -0.8423,0.407236 -0.8423,0.407236 0,0 0.95359,2.038712 0.23271,3.523481 0,0 0.27318,-2.514243 -0.53118,-3.376775 l -1.1433,0.667768 c 0,0 1.11548,2.107006 0.35918,3.827011 0,0 0.19477,-2.638185 -0.59947,-3.665129 l -1.03706,0.806885 c 0,0 1.04971,2.079183 0.40977,3.505775 0,0 -0.0835,-3.070715 -0.63489,-3.303422 0,0 -0.90554,0.799297 -1.04212,1.128122 0,0 0.71583,1.517651 0.27064,2.304301 0,0 -0.27317,-2.046301 -0.50587,-2.056418 0,0 -0.90301,1.355769 -0.9966,2.276477 a 4.9222502,4.9222502 0 0 1 0.77653,-2.413066 2.7090082,2.7090082 0 0 0 -1.38107,0.715826 c 0,0 0.13913,-0.95865 1.60366,-1.042121 0,0 0.75883,-1.029474 0.946,-1.09271 0,0 -1.45694,-0.121412 -2.33971,0.270649 0,0 0.77653,-0.903003 2.60783,-0.505885 l 1.01177,-0.834707 c 0,0 -1.9173,-0.252943 -2.73177,0.02783 0,0 0.93588,-0.799297 3.00748,-0.21753 l 1.11294,-0.665237 c 0,0 -1.63401,-0.354119 -2.60783,-0.225118 0,0 1.02695,-0.553943 2.93413,0.04553 l 0.79676,-0.356649 c 0,0 -1.19894,-0.235235 -1.54801,-0.273176 -0.34906,-0.03794 -0.36929,-0.13406 -0.36929,-0.13406 a 4.1381302,4.1381302 0 0 1 2.24866,0.252943 c 0,0 1.70736,-0.61465 1.67195,-0.720884 z"
     fill="#0e0e4c"
     id="path377"
     style="stroke-width:0.252942" />
  <path
     d="m 194.56746,91.787289 c 0,0 -9.61179,-0.579237 -8.48873,6.164196 0,0 -0.22511,1.191357 0.85495,1.732652 0,0 0.0177,-0.505884 0.98899,-0.331354 a 4.4290134,4.4290134 0 0 0 1.04466,0.05059 2.165183,2.165183 0 0 0 1.26471,-0.52612 v 0 c 0,0 2.70647,-1.118004 3.75871,-5.539429 0,0 0.77654,-0.963709 0.74618,-1.211592 l -1.62388,0.693062 c 0,0 0.55394,1.17112 0.11887,2.144947 0,0 -0.0531,-2.101947 -0.36423,-2.053889 -0.0633,0 -0.84482,0.407236 -0.84482,0.407236 0,0 0.95612,2.041242 0.23523,3.523483 0,0 0.27318,-2.514244 -0.53371,-3.376776 l -1.13065,0.660179 c 0,0 1.11548,2.107006 0.35918,3.827011 0,0 0.19476,-2.638184 -0.59947,-3.665128 l -1.03453,0.809413 c 0,0 1.04718,2.076654 0.40976,3.503246 0,0 -0.0835,-3.070714 -0.63488,-3.303421 0,0 -0.90554,0.799296 -1.04465,1.128121 0,0 0.71835,1.517652 0.27317,2.304301 0,0 -0.27317,-2.0463 -0.50588,-2.056418 0,0 -0.90301,1.355769 -0.99659,2.276478 a 4.9374267,4.9374267 0 0 1 0.77906,-2.413067 2.7216553,2.7216553 0 0 0 -1.38359,0.715826 c 0,0 0.14165,-0.95865 1.60618,-1.042121 0,0 0.74617,-1.029473 0.946,-1.092709 0,0 -1.45695,-0.121412 -2.33971,0.270648 0,0 0.77653,-0.903002 2.6053,-0.493237 l 1.01177,-0.834708 c 0,0 -1.91983,-0.252942 -2.73177,0.02783 0,0 0.93588,-0.799297 3.00747,-0.21753 l 1.11295,-0.665237 c 0,0 -1.63653,-0.35159 -2.61036,-0.225118 0,0 1.02947,-0.553944 2.93665,0.04552 l 0.79677,-0.356649 c 0,0 -1.19895,-0.235236 -1.55053,-0.273177 -0.35159,-0.03794 -0.3693,-0.134059 -0.3693,-0.134059 a 4.1457185,4.1457185 0 0 1 2.25119,0.252941 c 0,0 1.70988,-0.619707 1.67953,-0.725943 z"
     fill="#0e0e4c"
     opacity="0.1"
     id="path379"
     style="stroke-width:0.252942" />
  <path
     d="m 136.17581,85.800154 c 0,0 2.21324,-9.381617 -4.6263,-9.4145 0,0 -1.13572,-0.424942 -1.85154,0.546355 0,0 0.48818,0.103707 0.15682,1.029474 a 4.5023666,4.5023666 0 0 0 -0.22764,1.011768 2.1727713,2.1727713 0 0 0 0.301,1.34818 v 0 c 0,0 0.63994,2.858244 4.80589,4.649073 0,0 0.81954,0.930827 1.06742,0.940944 l -0.40471,-1.717475 c 0,0 -1.24954,0.34653 -2.13483,-0.252943 0,0 2.08172,0.30606 2.08424,0 0,-0.06323 -0.25294,-0.900473 -0.25294,-0.900473 0,0 -2.17277,0.591884 -3.51336,-0.371825 0,0 2.43077,0.69812 3.41977,0.05312 l -0.45529,-1.244474 c 0,0 -2.27648,0.74112 -3.8346,-0.298471 0,0 2.56735,0.642472 3.71572,0.03541 l -0.61971,-1.158474 c 0,0 -2.22589,0.677884 -3.52348,-0.194766 0,0 3.0353,0.440119 3.36413,-0.06071 0,0 -0.63236,-1.029473 -0.93337,-1.22171 0,0 -1.6087,0.450237 -2.31694,-0.123941 0,0 2.06148,0.07841 2.10954,-0.139118 0,0 -1.18124,-1.120533 -2.08172,-1.373475 a 4.9576621,4.9576621 0 0 1 2.24866,1.178709 2.7292436,2.7292436 0 0 0 -0.47048,-1.484769 c 0,0 0.92071,0.303531 0.75883,1.770593 0,0 0.8853,0.910592 0.91312,1.118004 0,0 0.36677,-1.413945 0.13153,-2.352359 0,0 0.75883,0.920708 0.043,2.65336 l 0.64754,1.150886 c 0,0 0.58682,-1.846477 0.43758,-2.696361 0,0 0.62983,1.057297 -0.29846,2.999891 l 0.46794,1.211592 c 0,0 0.62476,-1.553063 0.66523,-2.529419 0,0 0.37183,1.107885 -0.54635,2.886067 l 0.21753,0.844827 c 0,0 0.43506,-1.140768 0.53117,-1.47971 0.0961,-0.338943 0.19477,-0.341472 0.19477,-0.341472 a 4.1431891,4.1431891 0 0 1 -0.62982,2.1753 c 0,0 0.33136,1.765534 0.44011,1.752888 z"
     fill="#0e0e4c"
     opacity="0.1"
     id="path381"
     style="stroke-width:0.252942" />
  <path
     d="m 115.12598,88.99734 c 0,0 -7.71978,-5.774665 -10.47938,0.48059 0,0 -0.8423,0.872649 -0.23777,1.917299 0,0 0.28836,-0.407236 1.01177,0.268119 a 4.4290134,4.4290134 0 0 0 0.84483,0.617179 2.1702419,2.1702419 0 0 0 1.35829,0.252941 v 0 c 0,0 2.87343,0.553943 6.18191,-2.559773 0,0 1.18124,-0.379413 1.29253,-0.602001 l -1.74277,-0.30606 c 0,0 -0.18211,1.282416 -1.08006,1.856594 0,0 1.11041,-1.78577 0.82206,-1.914771 -0.0582,-0.02783 -0.9283,-0.12647 -0.9283,-0.12647 0,0 -0.32376,2.230947 -1.74024,3.073244 0,0 1.61124,-1.950182 1.41142,-3.113715 l -1.32289,-0.07083 c 0,0 -0.22511,2.375125 -1.80348,3.39701 0,0 1.61125,-2.096889 1.51766,-3.391952 l -1.31024,0.106232 c 0,0 -0.26559,2.30936 -1.58342,3.149127 0,0 1.6163,-2.61036 1.28494,-3.106127 0,0 -1.19641,0.169471 -1.49235,0.366766 0,0 -0.23018,1.65424 -1.03959,2.074124 0,0 0.89794,-1.859123 0.71582,-1.988123 0,0 -1.49994,0.634883 -2.0893,1.358297 a 4.9399562,4.9399562 0 0 1 1.97801,-1.588475 2.7241847,2.7241847 0 0 0 -1.54801,-0.161883 c 0,0 0.64248,-0.723414 1.91224,0.01265 0,0 1.18883,-0.447708 1.39118,-0.392061 0,0 -1.15087,-0.903002 -2.10447,-1.059827 0,0 1.14835,-0.328824 2.45101,1.011769 l 1.31277,-0.13406 c 0,0 -1.45948,-1.264709 -2.29672,-1.477181 0,0 1.22172,-0.154295 2.6306,1.469593 l 1.29506,0.05817 c 0,0 -1.17112,-1.193886 -2.05388,-1.623887 0,0 1.161,0.101182 2.4257,1.651711 l 0.86254,0.139118 c 0,0 -0.87265,-0.854944 -1.14583,-1.077533 -0.27317,-0.222589 -0.23523,-0.316177 -0.23523,-0.316177 a 4.1558362,4.1558362 0 0 1 1.74276,1.446827 c 0,0 1.75795,0.407237 1.79083,0.303531 z"
     fill="#0e0e4c"
     opacity="0.1"
     id="path383"
     style="stroke-width:0.252942" />
  <path
     d="m 140.82741,35.345824 c 0,0 -7.71978,-5.777194 -10.47937,0.480589 0,0 -0.84231,0.87265 -0.23777,1.9173 0,0 0.28835,-0.407236 1.01176,0.268119 a 4.4998372,4.4998372 0 0 0 0.84736,0.614649 2.1677124,2.1677124 0 0 0 1.3583,0.252942 v 0 c 0,0 2.87341,0.553943 6.1819,-2.562302 0,0 1.18124,-0.376884 1.29001,-0.602002 l -1.74278,-0.301001 c 0,0 -0.17959,1.282416 -1.08006,1.856594 0,0 1.11295,-1.78577 0.82459,-1.914771 -0.0582,-0.02782 -0.9283,-0.126471 -0.9283,-0.126471 0,0 -0.33388,2.236007 -1.75035,3.073245 0,0 1.60871,-1.950182 1.41141,-3.113715 l -1.32289,-0.07082 c 0,0 -0.22764,2.375125 -1.80347,3.394481 0,0 1.61124,-2.096889 1.51765,-3.391952 l -1.30771,0.106236 c 0,0 -0.26812,2.311889 -1.58595,3.151656 0,0 1.61883,-2.610361 1.28747,-3.106127 0,0 -1.19641,0.169471 -1.49235,0.366766 0,0 -0.23018,1.65424 -1.03959,2.074124 0,0 0.89795,-1.859123 0.71582,-1.990653 0,0 -1.49994,0.637413 -2.0893,1.360827 a 4.9171914,4.9171914 0 0 1 1.97801,-1.588475 2.7064788,2.7064788 0 0 0 -1.55053,-0.161883 c 0,0 0.645,-0.723414 1.91476,0.01265 0,0 1.18883,-0.450236 1.39118,-0.39206 0,0 -1.15087,-0.903003 -2.10447,-1.062356 0,0 1.14583,-0.326295 2.44847,1.011768 l 1.31278,-0.134059 c 0,0 -1.45695,-1.26471 -2.29671,-1.479711 0,0 1.2217,-0.151765 2.63313,1.472122 l 1.29506,0.05565 c 0,0 -1.17112,-1.193886 -2.05643,-1.621358 0,0 1.16354,0.101177 2.42824,1.651711 l 0.86001,0.139118 c 0,0 -0.87518,-0.844826 -1.14836,-1.062356 -0.27317,-0.21753 -0.23523,-0.313648 -0.23523,-0.313648 a 4.1482479,4.1482479 0 0 1 1.74277,1.446828 c 0,0 1.75794,0.384472 1.80094,0.288354 z"
     fill="#0e0e4c"
     opacity="0.1"
     id="path385"
     style="stroke-width:0.252942" />
  <path
     d="m 170.3255,42.663434 c 0,0 -3.08589,-9.133733 -8.90609,-5.544487 0,0 -1.18881,0.252942 -1.28241,1.444298 0,0 0.46795,-0.172 0.67535,0.789179 a 4.552955,4.552955 0 0 0 0.34654,0.989003 2.1904773,2.1904773 0 0 0 0.97129,0.983944 v 0 c 0,0 2.05389,2.086772 6.54614,1.39624 0,0 1.1863,0.359178 1.40383,0.235236 l -1.26471,-1.241944 c 0,0 -0.87518,0.95359 -1.94259,0.915649 0,0 1.92994,-0.839768 1.77059,-1.110415 -0.0329,-0.05312 -0.69306,-0.627296 -0.69306,-0.627296 0,0 -1.53283,1.651711 -3.17695,1.542946 0,0 2.43077,-0.693061 2.92654,-1.770594 l -1.04718,-0.806885 c 0,0 -1.53283,1.826241 -3.41218,1.770594 0,0 2.52941,-0.811944 3.16936,-1.935006 l -1.13824,-0.65512 c 0,0 -1.51766,1.752889 -3.09095,1.697241 0,0 2.81271,-1.231828 2.8203,-1.828771 0,0 -1.08006,-0.538766 -1.43672,-0.543825 0,0 -1.12812,1.231827 -2.02353,1.120533 0,0 1.79083,-1.024415 1.71495,-1.234357 0,0 -1.59354,-0.326295 -2.49148,-0.06323 a 4.9298385,4.9298385 0 0 1 2.52942,-0.189706 2.7292436,2.7292436 0 0 0 -1.1863,-1.011768 c 0,0 0.94094,-0.230177 1.57077,1.095239 0,0 1.23435,0.306059 1.36589,0.465413 0,0 -0.43506,-1.39371 -1.13066,-2.066536 0,0 1.13066,0.381942 1.43925,2.230948 l 1.15847,0.632355 c 0,0 -0.47806,-1.8743 -1.05477,-2.52942 0,0 1.09524,0.56659 1.333,2.70395 l 1.03707,0.78159 c 0,0 -0.28835,-1.649181 -0.77401,-2.504125 0,0 0.90048,0.743649 1.06237,2.739362 l 0.62981,0.602001 c 0,0 -0.2327,-1.198945 -0.32881,-1.537887 -0.0961,-0.338942 -0.0177,-0.361707 -0.0177,-0.361707 a 4.1710126,4.1710126 0 0 1 0.61465,2.18036 c 0,0 1.22424,1.312768 1.31276,1.247003 z"
     fill="#0e0e4c"
     opacity="0.1"
     id="path387"
     style="stroke-width:0.252942" />
  <path
     d="m 150.18627,43.113672 c 0,0 -9.5865,-1.067416 -8.7948,5.734193 0,0 -0.28581,1.178709 0.75883,1.770594 0,0 0.043,-0.505885 1.01177,-0.278236 a 4.6541318,4.6541318 0 0 0 1.04212,0.103707 2.1753007,2.1753007 0 0 0 1.30266,-0.462884 v 0 c 0,0 2.75959,-0.978885 4.04707,-5.342134 0,0 0.82458,-0.923238 0.80687,-1.173651 l -1.65676,0.61212 c 0,0 0.50589,1.196416 0,2.147477 0,0 0.0532,-2.101947 -0.25294,-2.069065 -0.0633,0 -0.86254,0.364237 -0.86254,0.364237 0,0 0.84989,2.08677 0.0556,3.541187 0,0 0.39964,-2.499067 -0.36171,-3.39954 l -1.17618,0.60706 c 0,0 1.01177,2.162654 0.16441,3.842188 0,0 0.32883,-2.625537 -0.41229,-3.690422 l -1.075,0.758826 c 0,0 0.94094,2.127241 0.23017,3.520952 0,0 0.0733,-3.070716 -0.46541,-3.331246 0,0 -0.946,0.758826 -1.10029,1.072474 0,0 0.63993,1.542946 0.15681,2.314419 0,0 -0.16946,-2.056418 -0.39206,-2.076653 0,0 -0.97129,1.307709 -1.11294,2.230947 a 4.9247796,4.9247796 0 0 1 0.90048,-2.372595 2.7216553,2.7216553 0 0 0 -1.41648,0.645002 c 0,0 0.18718,-0.948532 1.65424,-0.95865 0,0 0.79676,-0.989003 1.01176,-1.042121 0,0 -1.44935,-0.194766 -2.35235,0.151766 0,0 0.82206,-0.865063 2.62806,-0.361708 l 1.06489,-0.781591 c 0,0 -1.92489,-0.38953 -2.73936,-0.136588 0,0 0.97636,-0.758826 3.01507,-0.06323 l 1.14582,-0.609589 c 0,0 -1.6163,-0.435061 -2.59518,-0.356649 0,0 1.05477,-0.505883 2.92907,0.194766 l 0.81447,-0.316178 c 0,0 -1.1863,-0.295942 -1.53536,-0.351589 -0.34906,-0.05565 -0.3617,-0.151765 -0.3617,-0.151765 a 4.1608949,4.1608949 0 0 1 2.23601,0.364236 c 0,0 1.70482,-0.543825 1.68712,-0.65006 z"
     fill="#0e0e4c"
     opacity="0.1"
     id="path389"
     style="stroke-width:0.252942" />
  <path
     d="m 234.06182,117.5216 c 0,0 -9.58144,-1.06741 -8.78974,5.72661 0,0 -0.28582,1.17871 0.75883,1.77059 0,0 0.043,-0.50588 1.01177,-0.28076 a 4.3758956,4.3758956 0 0 0 1.04212,0.1037 2.1575948,2.1575948 0 0 0 1.30265,-0.46288 v 0 c 0,0 2.7596,-0.97889 4.03443,-5.3396 0,0 0.82458,-0.92577 0.80687,-1.17366 l -1.65676,0.60959 c 0,0 0.50589,1.19895 0,2.15001 0,0 0.0532,-2.10448 -0.25294,-2.06906 -0.0633,0 -0.86254,0.3617 -0.86254,0.3617 0,0 0.84989,2.08677 0.0556,3.54119 0,0 0.39964,-2.49654 -0.36171,-3.39954 l -1.17618,0.60959 c 0,0 1.01177,2.16265 0.16694,3.84219 0,0 0.3263,-2.62554 -0.41482,-3.69295 l -1.07501,0.75882 c 0,0 0.94095,2.12724 0.23018,3.51842 0,0 0.0733,-3.07071 -0.46541,-3.32871 0,0 -0.94348,0.75882 -1.10029,1.07247 0,0 0.64246,1.54295 0.15681,2.31442 0,0 -0.16946,-2.05642 -0.39206,-2.07665 0,0 -0.97129,1.30771 -1.11293,2.23095 a 4.9247796,4.9247796 0 0 1 0.90047,-2.3726 2.6988906,2.6988906 0 0 0 -1.41648,0.645 c 0,0 0.18718,-0.95106 1.65424,-0.96118 0,0 0.7993,-0.989 1.01176,-1.03959 0,0 -1.44935,-0.19729 -2.35235,0.14924 0,0 0.82206,-0.86254 2.6306,-0.35918 l 1.06238,-0.78159 c 0,0 -1.90212,-0.35918 -2.72924,-0.1113 0,0 0.97635,-0.75882 3.01507,-0.0658 l 1.14583,-0.60706 c 0,0 -1.6163,-0.43506 -2.59519,-0.35664 0,0 1.05476,-0.50589 2.92907,0.19476 l 0.81447,-0.31871 c 0,0 -1.1863,-0.29594 -1.53536,-0.34906 -0.34905,-0.0531 -0.36171,-0.15176 -0.36171,-0.15176 a 4.1457185,4.1457185 0 0 1 2.23601,0.36171 c 0,0 1.70989,-0.55395 1.6846,-0.66271 z"
     fill="#0e0e4c"
     opacity="0.1"
     id="path391"
     style="stroke-width:0.252942" />
  <path
     d="m 248.70969,126.47069 c 0,0 -9.58144,-1.06489 -8.78974,5.7266 0,0 -0.28329,1.17871 0.75883,1.7706 0,0 0.043,-0.50588 1.01177,-0.27824 a 4.4644253,4.4644253 0 0 0 1.03958,0.10118 2.1854184,2.1854184 0 0 0 1.2976,-0.46035 v 0 c 0,0 2.75707,-0.97888 4.0319,-5.34213 0,0 0.82712,-0.92324 0.80688,-1.17366 l -1.65677,0.60959 c 0,0 0.50589,1.19895 0,2.15001 0,0 0.0532,-2.10195 -0.25294,-2.06906 -0.0633,0 -0.86254,0.3617 -0.86254,0.3617 0,0 0.84989,2.08678 0.0556,3.54119 0,0 0.39964,-2.49654 -0.36171,-3.39701 l -1.17618,0.60706 c 0,0 1.01177,2.16266 0.16694,3.84219 0,0 0.3263,-2.62554 -0.41482,-3.69042 l -1.07501,0.75882 c 0,0 0.94095,2.12724 0.23271,3.52095 0,0 0.0709,-3.07324 -0.46794,-3.33124 0,0 -0.94347,0.75883 -1.10029,1.07247 0,0 0.64246,1.54295 0.15682,2.31442 0,0 -0.16948,-2.05642 -0.39206,-2.07665 0,0 -0.9713,1.30771 -1.11042,2.23095 a 4.9374267,4.9374267 0 0 1 0.89794,-2.3726 2.7216553,2.7216553 0 0 0 -1.41647,0.645 c 0,0 0.1897,-0.95106 1.65677,-0.95865 0,0 0.79677,-0.989 1.01177,-1.04212 0,0 -1.44936,-0.19476 -2.35236,0.15177 0,0 0.82206,-0.86506 2.63059,-0.36171 l 1.06236,-0.78159 c 0,0 -1.90212,-0.35918 -2.72925,-0.1113 0,0 0.97636,-0.75882 3.01507,-0.0632 l 1.14583,-0.60959 c 0,0 -1.6163,-0.43506 -2.59518,-0.35664 0,0 1.05477,-0.50589 2.92906,0.19476 l 0.81447,-0.31618 c 0,0 -1.18629,-0.29594 -1.53282,-0.35158 -0.34653,-0.0556 -0.36423,-0.15177 -0.36423,-0.15177 a 4.1608949,4.1608949 0 0 1 2.236,0.36424 c 0,0 1.71748,-0.559 1.69219,-0.66777 z"
     fill="#0e0e4c"
     opacity="0.1"
     id="path393"
     style="stroke-width:0.252942" />
  <path
     d="m 216.18893,51.09146 c 0,0 -7.71978,-5.774664 -10.47937,0.480589 0,0 -0.84231,0.872651 -0.23777,1.917301 0,0 0.28835,-0.407237 1.01177,0.268119 a 4.4290134,4.4290134 0 0 0 0.84482,0.617177 2.1727713,2.1727713 0 0 0 1.3583,0.252942 v 0 c 0,0 2.87342,0.553944 6.18443,-2.559772 0,0 1.17871,-0.379413 1.29001,-0.602002 l -1.73772,-0.313648 c 0,0 -0.18211,1.282415 -1.08006,1.856594 0,0 1.11041,-1.78577 0.82206,-1.914771 -0.0582,-0.02782 -0.92577,-0.126471 -0.92577,-0.126471 0,0 -0.32629,2.230949 -1.74276,3.073245 0,0 1.61124,-1.950182 1.41141,-3.113715 l -1.32289,-0.07083 c 0,0 -0.22511,2.375124 -1.80347,3.39701 0,0 1.61376,-2.096889 1.51765,-3.391951 l -1.31024,0.106232 c 0,0 -0.25294,2.309359 -1.58341,3.149127 0,0 1.61883,-2.610361 1.28494,-3.106127 0,0 -1.19642,0.169472 -1.49236,0.366766 0,0 -0.22764,1.65424 -1.03706,2.074124 0,0 0.89542,-1.859124 0.7133,-1.988124 0,0 -1.49995,0.634885 -2.08931,1.358299 a 4.9399562,4.9399562 0 0 1 1.97801,-1.588476 2.7241847,2.7241847 0 0 0 -1.54801,-0.161883 c 0,0 0.64501,-0.723414 1.91478,0.01265 0,0 1.18629,-0.447707 1.38865,-0.39206 0,0 -1.15089,-0.903003 -2.10448,-1.059827 0,0 1.14836,-0.328824 2.45101,1.011768 l 1.31277,-0.134059 c 0,0 -1.45695,-1.26471 -2.29672,-1.477181 0,0 1.22172,-0.154294 2.6306,1.469593 l 1.29759,0.05817 c 0,0 -1.17364,-1.193886 -2.05641,-1.623887 0,0 1.16352,0.101182 2.42571,1.651711 l 0.86253,0.139118 c 0,0 -0.87265,-0.854944 -1.14583,-1.077533 -0.27317,-0.222589 -0.2327,-0.295942 -0.2327,-0.295942 a 4.1583655,4.1583655 0 0 1 1.74024,1.446828 c 0,0 1.75289,0.394589 1.78576,0.290883 z"
     fill="#0e0e4c"
     opacity="0.1"
     id="path395"
     style="stroke-width:0.252942" />
  <path
     d="m 222.15331,92.781352 c 0,0 -2.66095,-9.265264 -8.64556,-5.939077 0,0 -1.19895,0.184647 -1.34818,1.383592 0,0 0.47554,-0.149235 0.63994,0.819532 a 4.4846606,4.4846606 0 0 0 0.30354,1.011768 2.1727713,2.1727713 0 0 0 0.92576,1.032003 v 0 c 0,0 1.95777,2.175301 6.47531,1.689652 0,0 1.1686,0.409766 1.39119,0.298471 l -1.19642,-1.300121 c 0,0 -0.91818,0.915649 -1.98053,0.829649 0,0 1.96282,-0.758826 1.81106,-1.029473 -0.0304,-0.05565 -0.66271,-0.660178 -0.66271,-0.660178 0,0 -1.60364,1.583416 -3.24272,1.398768 0,0 2.46114,-0.581767 3.00243,-1.628946 l -1.01177,-0.854944 c 0,0 -1.61377,1.755417 -3.48807,1.618828 0,0 2.54966,-0.700649 3.25284,-1.790828 l -1.10789,-0.705709 c 0,0 -1.60618,1.682064 -3.1643,1.555593 0,0 2.86583,-1.105356 2.90124,-1.69977 0,0 -1.05729,-0.586824 -1.41395,-0.60706 0,0 -1.18123,1.17871 -2.07918,1.026944 0,0 1.83636,-0.943473 1.7706,-1.155945 0,0 -1.57836,-0.397118 -2.48643,-0.177058 a 4.9348973,4.9348973 0 0 1 2.52942,-0.07335 2.714067,2.714067 0 0 0 -1.13824,-1.062356 c 0,0 0.95107,-0.189707 1.51766,1.163533 0,0 1.21664,0.359178 1.34312,0.526119 0,0 -0.37183,-1.413945 -1.03706,-2.114594 0,0 1.11294,0.430001 1.33806,2.291653 l 1.12812,0.685473 c 0,0 -0.39459,-1.897064 -0.94094,-2.564831 0,0 1.06741,0.614649 1.21159,2.759596 l 1.01176,0.82712 c 0,0 -0.215,-1.659298 -0.66017,-2.529419 0,0 0.86759,0.78412 0.93842,2.782361 l 0.602,0.632356 c 0,0 -0.17706,-1.209063 -0.25294,-1.553064 -0.0759,-0.344001 0,-0.392061 0,-0.392061 a 4.1457185,4.1457185 0 0 1 0.51852,2.205655 c 0,0 1.15343,1.360828 1.24448,1.300122 z"
     fill="#0e0e4c"
     opacity="0.1"
     id="path397"
     style="stroke-width:0.252942" />
  <path
     d="m 162.85866,113.65918 c 0,0 -5.16761,-8.13967 -9.96592,-3.26801 0,0 -1.09777,0.50588 -0.90552,1.70736 0,0 0.41735,-0.27824 0.84735,0.60706 a 4.3303661,4.3303661 0 0 0 0.57165,0.87518 2.1601241,2.1601241 0 0 0 1.17618,0.72847 v 0 c 0,0 2.49148,1.53789 6.69032,-0.20235 0,0 1.23688,0.0658 1.419,-0.10371 l -1.51766,-0.91059 c 0,0 -0.62476,1.13824 -1.66941,1.35324 0,0 1.67447,-1.26471 1.44936,-1.49742 -0.043,-0.0455 -0.82207,-0.44518 -0.82207,-0.44518 0,0 -1.09523,1.96789 -2.71912,2.25372 0,0 2.19806,-1.25207 2.42572,-2.41054 l -1.2116,-0.53371 c 0,0 -1.05477,2.13736 -2.89113,2.52942 0,0 2.25119,-1.38865 2.61795,-2.63312 l -1.26471,-0.36424 c 0,0 -1.06741,2.06653 -2.59771,2.38271 0,0 2.43836,-1.86671 2.3043,-2.44848 0,0 -1.17871,-0.26558 -1.51765,-0.18464 0,0 -0.80182,1.46453 -1.70736,1.57077 0,0 1.49741,-1.42154 1.37347,-1.60871 0,0 -1.62641,0.0632 -2.43582,0.53117 a 4.9222502,4.9222502 0 0 1 2.41306,-0.78412 2.714067,2.714067 0 0 0 -1.38865,-0.70065 c 0,0 0.85748,-0.4477 1.7706,0.69054 0,0 1.2647,0 1.43923,0.12647 0,0 -0.75882,-1.26471 -1.591,-1.73772 0,0 1.18883,0.10118 1.92741,1.82372 l 1.27736,0.33894 c 0,0 -0.91312,-1.70736 -1.62388,-2.19554 0,0 1.19641,0.28836 1.93753,2.30936 l 1.19389,0.50589 c 0,0 -0.67283,-1.5303 -1.34818,-2.24613 0,0 1.05223,0.50589 1.68206,2.40548 l 0.75883,0.43759 c 0,0 -0.50589,-1.11042 -0.68548,-1.41648 -0.17958,-0.30606 -0.10877,-0.37688 -0.10877,-0.37688 a 4.1482479,4.1482479 0 0 1 1.11548,1.97042 c 0,0 1.51259,1.00671 1.58089,0.92071 z"
     fill="#0e0e4c"
     opacity="0.1"
     id="path399"
     style="stroke-width:0.252942" />
  <path
     d="m 196.82118,72.070465 c 0,0 -4.91467,-8.293967 -9.86475,-3.57407 0,0 -1.11294,0.48059 -0.95612,1.679535 0,0 0.42242,-0.268118 0.82712,0.629825 a 4.3708368,4.3708368 0 0 0 0.54383,0.895414 2.1474771,2.1474771 0 0 0 1.15341,0.758826 v 0 c 0,0 2.4409,1.61377 6.69285,0 0,0 1.23436,0.103707 1.42153,-0.06071 l -1.48476,-0.956121 c 0,0 -0.65765,1.115475 -1.70989,1.300122 0,0 1.71241,-1.221709 1.49741,-1.451886 -0.0455,-0.04806 -0.80941,-0.473002 -0.80941,-0.473002 0,0 -1.15594,1.935006 -2.78236,2.170243 0,0 2.23601,-1.18377 2.49654,-2.332126 l -1.19389,-0.561531 c 0,0 -1.12053,2.107006 -2.96954,2.443419 0,0 2.29419,-1.317827 2.6989,-2.549654 l -1.24954,-0.404708 c 0,0 -1.13318,2.023537 -2.67107,2.301772 0,0 2.49401,-1.790829 2.37766,-2.375124 0,0 -1.1686,-0.303531 -1.51766,-0.232707 0,0 -0.84735,1.439239 -1.75541,1.517651 0,0 1.54041,-1.370945 1.42406,-1.563181 0,0 -1.62895,0.01265 -2.45101,0.455296 a 4.9374267,4.9374267 0 0 1 2.43584,-0.708238 2.7191259,2.7191259 0 0 0 -1.36842,-0.743649 c 0,0 0.87265,-0.422413 1.77059,0.743649 0,0 1.26472,0.043 1.43418,0.172001 0,0 -0.71582,-1.26471 -1.53535,-1.78577 0,0 1.18376,0.136588 1.86924,1.881888 l 1.2647,0.379413 c 0,0 -0.85747,-1.735182 -1.55559,-2.246125 0,0 1.18883,0.326296 1.86672,2.367537 l 1.17618,0.548884 c 0,0 -0.62477,-1.550534 -1.26472,-2.276478 0,0 1.03454,0.538766 1.60872,2.456067 l 0.74112,0.460354 c 0,0 -0.47554,-1.125592 -0.64248,-1.436711 -0.16694,-0.311118 -0.0961,-0.379413 -0.0961,-0.379413 a 4.1558362,4.1558362 0 0 1 1.05477,2.003301 c 0,0 1.44936,1.029474 1.52272,0.946003 z"
     fill="#0e0e4c"
     id="path401"
     style="stroke-width:0.252942" />
  <path
     d="m 165.72702,89.510812 c 0,0 0.25294,-9.637088 -6.44243,-8.278789 0,0 -1.19894,-0.184649 -1.70483,0.913119 0,0 0.50589,0 0.36423,0.973827 a 4.4416606,4.4416606 0 0 0 -0.0151,1.047179 2.1626536,2.1626536 0 0 0 0.56912,1.26471 v 0 c 0,0 1.20654,2.666009 5.66084,3.571541 0,0 0.98901,0.746178 1.23689,0.705708 l -0.75883,-1.598594 c 0,0 -1.15088,0.591885 -2.13989,0.189707 0,0 2.09943,-0.123941 2.04124,-0.432531 0,-0.06323 -0.43506,-0.832179 -0.43506,-0.832179 0,0 -2.00835,1.024415 -3.51336,0.35159 0,0 2.52942,0.189707 3.35655,-0.642473 l -0.70571,-1.120533 c 0,0 -2.06907,1.183768 -3.81437,0.485649 0,0 2.64325,0.106232 3.64489,-0.720885 l -0.8423,-1.011767 c 0,0 -2.04124,1.118003 -3.48807,0.526119 0,0 3.06567,-0.184648 3.28825,-0.743649 0,0 -0.82964,-0.877709 -1.16353,-1.011769 0,0 -1.48224,0.758826 -2.29166,0.349061 0,0 2.02354,-0.338942 2.03618,-0.564062 0,0 -1.38358,-0.857472 -2.31695,-0.920708 a 4.9247796,4.9247796 0 0 1 2.4409,0.69812 2.7191259,2.7191259 0 0 0 -0.75882,-1.358299 c 0,0 0.9637,0.108766 1.09524,1.568241 0,0 1.05476,0.713296 1.12306,0.91059 0,0 0.0733,-1.459475 -0.34906,-2.329594 0,0 0.93082,0.746178 0.58176,2.587595 l 0.86759,0.996592 c 0,0 0.19729,-1.927417 -0.11888,-2.729243 0,0 0.82965,0.908061 0.31871,2.997361 l 0.70064,1.09018 c 0,0 0.29848,-1.646652 0.13912,-2.61542 0,0 0.58683,1.011768 0.0506,2.936656 l 0.38448,0.78412 c 0,0 0.19476,-1.206533 0.22006,-1.558122 0.0252,-0.351589 0.1214,-0.374354 0.1214,-0.374354 a 4.1533068,4.1533068 0 0 1 -0.17452,2.258771 c 0,0 0.68041,1.669417 0.7917,1.636535 z"
     fill="#0e0e4c"
     id="path403"
     style="stroke-width:0.252942" />
  <ellipse
     cx="176.79576"
     cy="210.81416"
     rx="6.8117266"
     ry="1.1508859"
     fill="#0e0e4c"
     opacity="0.1"
     id="ellipse405"
     style="stroke-width:0.252942" />
  <ellipse
     cx="151.96445"
     cy="228.28741"
     rx="6.8117266"
     ry="1.1508859"
     fill="#0e0e4c"
     opacity="0.1"
     id="ellipse407"
     style="stroke-width:0.252942" />
  <ellipse
     cx="23.555941"
     cy="219.3358"
     rx="6.8117266"
     ry="1.1508859"
     fill="#0e0e4c"
     opacity="0.1"
     id="ellipse409"
     style="stroke-width:0.252942" />
  <ellipse
     cx="203.63037"
     cy="227.13652"
     rx="6.8117266"
     ry="1.1508859"
     fill="#0e0e4c"
     opacity="0.1"
     id="ellipse411"
     style="stroke-width:0.252942" />
  <ellipse
     cx="210.72285"
     cy="212.53418"
     rx="10.170795"
     ry="1.7200053"
     fill="#0e0e4c"
     id="ellipse413"
     style="stroke-width:0.252942" />
  <path
     d="m 214.93941,209.71895 a 2.936656,2.936656 0 0 0 0.96877,-1.46201 c 0.12646,-0.58177 -0.12142,-1.27736 -0.67537,-1.48983 -0.62223,-0.23777 -1.28747,0.19223 -1.79335,0.62729 -0.50589,0.43506 -1.08006,0.93336 -1.74024,0.8423 a 2.6558904,2.6558904 0 0 0 0.81953,-2.48136 1.0395914,1.0395914 0 0 0 -0.22765,-0.50588 c -0.34653,-0.3693 -0.97129,-0.20995 -1.38612,0.081 -1.31529,0.92577 -1.68206,2.71154 -1.68965,4.32026 -0.13153,-0.57925 -0.0202,-1.18378 -0.0228,-1.7706 -0.002,-0.58683 -0.16694,-1.26472 -0.67029,-1.5733 a 2.0007708,2.0007708 0 0 0 -1.01177,-0.25294 c -0.59189,-0.0202 -1.25207,0.0379 -1.65424,0.47046 -0.50589,0.53624 -0.37183,1.43924 0.0632,2.02355 0.43506,0.58429 1.1003,0.96117 1.71241,1.37094 a 3.8270117,3.8270117 0 0 1 1.22424,1.16606 1.1888271,1.1888271 0 0 1 0.0885,0.20741 h 3.70812 a 10.228972,10.228972 0 0 0 2.2866,-1.57329 z"
     fill="#0e0e4c"
     id="path415"
     style="stroke-width:0.252942" />
  <path
     d="m 18.982751,213.98608 c 0,0 3.882659,-0.11889 5.058839,-0.9536 1.176181,-0.83471 5.977019,-1.82877 6.267902,-0.49071 0.290883,1.33806 5.8379,6.64985 1.451887,6.68526 -4.386013,0.0354 -10.191031,-0.68295 -11.359623,-1.39624 -1.168592,-0.71329 -1.419005,-3.84471 -1.419005,-3.84471 z"
     fill="#a8a8a8"
     id="path417"
     style="stroke-width:0.252942" />
  <path
     d="m 31.834732,218.76162 c -4.386013,0.0354 -10.191031,-0.68295 -11.359623,-1.39624 -0.890355,-0.5413 -1.244474,-2.48643 -1.363357,-3.38437 h -0.129001 c 0,0 0.252943,3.13395 1.413946,3.84472 1.161004,0.71077 6.97361,1.43166 11.359623,1.39624 1.26471,0 1.702299,-0.46035 1.679535,-1.12812 -0.17706,0.40723 -0.660179,0.66018 -1.601123,0.66777 z"
     opacity="0.2"
     id="path419"
     style="stroke-width:0.252942" />
</svg>
