<svg id="Gruppe_2043" data-name="Gruppe 2043" xmlns="http://www.w3.org/2000/svg" width="15" height="14.722" viewBox="0 0 15 14.722">
  <g id="Gruppe_2022" data-name="Gruppe 2022" transform="translate(0.93 3.663)">
    <path id="Pfad_9914" data-name="Pfad 9914" d="M10.032,19.856c-3.547,0-6.343-3.262-6.462-3.4a.465.465,0,0,1,0-.6c.118-.138,2.914-3.4,6.462-3.4s6.343,3.262,6.462,3.4a.465.465,0,0,1,0,.6C16.375,16.594,13.58,19.856,10.032,19.856Zm-5.483-3.7c.752.772,2.953,2.778,5.483,2.778s4.731-2.006,5.483-2.775c-.752-.772-2.953-2.778-5.483-2.778S5.3,15.386,4.549,16.158Z" transform="translate(-3.462 -12.46)" fill="#0e0e4c"/>
  </g>
  <g id="Gruppe_2041" data-name="Gruppe 2041" transform="translate(0)">
    <g id="Gruppe_2031" data-name="Gruppe 2031">
      <g id="Gruppe_2026" data-name="Gruppe 2026">
        <g id="Gruppe_2023" data-name="Gruppe 2023" transform="translate(5.49)">
          <path id="Pfad_9915" data-name="Pfad 9915" d="M18.474,4.062a.461.461,0,0,1-.455-.394L17.7,1.521a.46.46,0,1,1,.91-.135l.32,2.147a.457.457,0,0,1-.388.522A.24.24,0,0,1,18.474,4.062Z" transform="translate(-17.693 -0.993)" fill="#0e0e4c"/>
        </g>
        <g id="Gruppe_2024" data-name="Gruppe 2024" transform="translate(2.547 0.906)">
          <path id="Pfad_9916" data-name="Pfad 9916" d="M9.9,6.7a.46.46,0,0,1-.417-.263L8.549,4.48a.462.462,0,0,1,.833-.4l.939,1.955A.465.465,0,0,1,9.9,6.7Z" transform="translate(-8.506 -3.82)" fill="#0e0e4c"/>
        </g>
        <g id="Gruppe_2025" data-name="Gruppe 2025" transform="translate(0 2.639)">
          <path id="Pfad_9917" data-name="Pfad 9917" d="M2.491,11.741a.447.447,0,0,1-.336-.147L.681,10a.46.46,0,0,1,.676-.625l1.474,1.593a.461.461,0,0,1-.026.65A.472.472,0,0,1,2.491,11.741Z" transform="translate(-0.559 -9.229)" fill="#0e0e4c"/>
        </g>
      </g>
      <g id="Gruppe_2030" data-name="Gruppe 2030" transform="translate(8.269 0)">
        <g id="Gruppe_2027" data-name="Gruppe 2027">
          <path id="Pfad_9918" data-name="Pfad 9918" d="M26.894,4.062a.24.24,0,0,1-.067-.006.461.461,0,0,1-.388-.522l.32-2.147a.46.46,0,0,1,.91.135l-.32,2.147A.461.461,0,0,1,26.894,4.062Z" transform="translate(-26.434 -0.994)" fill="#0e0e4c"/>
        </g>
        <g id="Gruppe_2028" data-name="Gruppe 2028" transform="translate(2.326 0.907)">
          <path id="Pfad_9919" data-name="Pfad 9919" d="M34.154,6.7a.485.485,0,0,1-.2-.045.457.457,0,0,1-.215-.615l.939-1.955a.461.461,0,1,1,.83.4l-.939,1.955A.47.47,0,0,1,34.154,6.7Z" transform="translate(-33.694 -3.826)" fill="#0e0e4c"/>
        </g>
        <g id="Gruppe_2029" data-name="Gruppe 2029" transform="translate(4.337 2.639)">
          <path id="Pfad_9920" data-name="Pfad 9920" d="M40.431,11.741a.472.472,0,0,1-.314-.122.461.461,0,0,1-.026-.65l1.474-1.593a.46.46,0,1,1,.676.625l-1.474,1.593A.464.464,0,0,1,40.431,11.741Z" transform="translate(-39.969 -9.229)" fill="#0e0e4c"/>
        </g>
      </g>
    </g>
    <g id="Gruppe_2040" data-name="Gruppe 2040" transform="translate(0 9.57)">
      <g id="Gruppe_2035" data-name="Gruppe 2035" transform="translate(8.268)">
        <g id="Gruppe_2032" data-name="Gruppe 2032" transform="translate(0 2.083)">
          <path id="Pfad_9921" data-name="Pfad 9921" d="M26.894,37.43a.461.461,0,0,1,.455.394l.32,2.147a.46.46,0,0,1-.91.135l-.32-2.147a.457.457,0,0,1,.388-.522A.24.24,0,0,1,26.894,37.43Z" transform="translate(-26.433 -37.43)" fill="#0e0e4c"/>
        </g>
        <g id="Gruppe_2033" data-name="Gruppe 2033" transform="translate(2.328 1.368)">
          <path id="Pfad_9922" data-name="Pfad 9922" d="M34.158,35.2a.46.46,0,0,1,.417.263l.939,1.955a.461.461,0,1,1-.83.4l-.939-1.955a.465.465,0,0,1,.215-.615A.442.442,0,0,1,34.158,35.2Z" transform="translate(-33.7 -35.2)" fill="#0e0e4c"/>
        </g>
        <g id="Gruppe_2034" data-name="Gruppe 2034" transform="translate(4.337)">
          <path id="Pfad_9923" data-name="Pfad 9923" d="M40.431,30.93a.447.447,0,0,1,.336.147l1.474,1.593a.46.46,0,0,1-.676.625L40.091,31.7a.461.461,0,0,1,.026-.65A.472.472,0,0,1,40.431,30.93Z" transform="translate(-39.969 -30.93)" fill="#0e0e4c"/>
        </g>
      </g>
      <g id="Gruppe_2039" data-name="Gruppe 2039">
        <g id="Gruppe_2036" data-name="Gruppe 2036" transform="translate(5.49 2.083)">
          <path id="Pfad_9924" data-name="Pfad 9924" d="M18.474,37.43a.24.24,0,0,1,.067.006.461.461,0,0,1,.388.522l-.32,2.147a.46.46,0,0,1-.91-.135l.32-2.147A.461.461,0,0,1,18.474,37.43Z" transform="translate(-17.694 -37.43)" fill="#0e0e4c"/>
        </g>
        <g id="Gruppe_2037" data-name="Gruppe 2037" transform="translate(2.543 1.368)">
          <path id="Pfad_9925" data-name="Pfad 9925" d="M9.9,35.2a.485.485,0,0,1,.2.045.457.457,0,0,1,.215.615l-.939,1.955a.461.461,0,0,1-.83-.4L9.48,35.46A.47.47,0,0,1,9.9,35.2Z" transform="translate(-8.494 -35.2)" fill="#0e0e4c"/>
        </g>
        <g id="Gruppe_2038" data-name="Gruppe 2038">
          <path id="Pfad_9926" data-name="Pfad 9926" d="M2.491,30.93a.472.472,0,0,1,.314.122.461.461,0,0,1,.026.65L1.357,33.295a.46.46,0,1,1-.676-.625l1.474-1.593A.464.464,0,0,1,2.491,30.93Z" transform="translate(-0.559 -30.93)" fill="#0e0e4c"/>
        </g>
      </g>
    </g>
  </g>
  <g id="Gruppe_2042" data-name="Gruppe 2042" transform="translate(5.132 4.993)">
    <path id="Pfad_9927" data-name="Pfad 9927" d="M18.978,21.346a2.368,2.368,0,1,1,2.368-2.368A2.371,2.371,0,0,1,18.978,21.346Z" transform="translate(-16.61 -16.61)" fill="#0e0e4c"/>
  </g>
</svg>
