<?xml version="1.0" encoding="UTF-8" standalone="no"?>
<svg
   xmlns:dc="http://purl.org/dc/elements/1.1/"
   xmlns:cc="http://creativecommons.org/ns#"
   xmlns:rdf="http://www.w3.org/1999/02/22-rdf-syntax-ns#"
   xmlns:svg="http://www.w3.org/2000/svg"
   xmlns="http://www.w3.org/2000/svg"
   xmlns:sodipodi="http://sodipodi.sourceforge.net/DTD/sodipodi-0.dtd"
   xmlns:inkscape="http://www.inkscape.org/namespaces/inkscape"
   width="256"
   height="256"
   viewBox="0 0 67.733331 67.733331"
   version="1.1"
   id="svg8"
   inkscape:version="1.0.1 (3bc2e813f5, 2020-09-07)"
   sodipodi:docname="server_down.svg">
  <defs
     id="defs2" />
  <sodipodi:namedview
     id="base"
     pagecolor="#ffffff"
     bordercolor="#666666"
     borderopacity="1.0"
     inkscape:pageopacity="0.0"
     inkscape:pageshadow="2"
     inkscape:zoom="1.979899"
     inkscape:cx="161.71679"
     inkscape:cy="161.13015"
     inkscape:document-units="mm"
     inkscape:current-layer="layer1"
     inkscape:document-rotation="0"
     showgrid="false"
     units="px"
     inkscape:window-width="1920"
     inkscape:window-height="1051"
     inkscape:window-x="-9"
     inkscape:window-y="1791"
     inkscape:window-maximized="1" />
  <metadata
     id="metadata5">
    <rdf:RDF>
      <cc:Work
         rdf:about="">
        <dc:format>image/svg+xml</dc:format>
        <dc:type
           rdf:resource="http://purl.org/dc/dcmitype/StillImage" />
        <dc:title></dc:title>
      </cc:Work>
    </rdf:RDF>
  </metadata>
  <g
     inkscape:label="Ebene 1"
     inkscape:groupmode="layer"
     id="layer1">
    <g
       id="g169"
       transform="matrix(0.06003495,0,0,0.06003495,0.40502326,13.601191)">
      <circle
         cx="292.6091"
         cy="213"
         r="213"
         fill="#f2f2f2"
         id="circle12" />
      <path
         d="m 31.39089,151.64237 c 0,77.49789 48.6181,140.20819 108.70073,140.20819"
         transform="translate(-31.39089,-100.5)"
         fill="#2f2e41"
         id="path14" />
      <path
         d="m 140.09162,291.85056 c 0,-78.36865 54.255,-141.78356 121.30372,-141.78356"
         transform="translate(-31.39089,-100.5)"
         fill="#0e0e4c"
         id="path16" />
      <path
         d="m 70.77521,158.66768 c 0,73.61476 31.00285,133.18288 69.31641,133.18288"
         transform="translate(-31.39089,-100.5)"
         fill="#0e0e4c"
         id="path18" />
      <path
         d="m 140.09162,291.85056 c 0,-100.13772 62.7103,-181.16788 140.20819,-181.16788"
         transform="translate(-31.39089,-100.5)"
         fill="#2f2e41"
         id="path20" />
      <path
         d="m 117.22379,292.83905 c 0,0 15.41555,-0.47479 20.06141,-3.783 4.64586,-3.30821 23.713,-7.2585 24.86553,-1.95278 1.15253,5.30572 23.16671,26.38821 5.76263,26.5286 -17.40408,0.14039 -40.43935,-2.711 -45.07627,-5.53549 -4.63692,-2.82449 -5.6133,-15.25733 -5.6133,-15.25733 z"
         transform="translate(-31.39089,-100.5)"
         fill="#a8a8a8"
         id="path22" />
      <path
         d="m 168.224,311.78489 c -17.40408,0.14042 -40.43933,-2.71094 -45.07626,-5.53548 -3.53126,-2.151 -4.93843,-9.86945 -5.40926,-13.43043 -0.32607,0.014 -0.51463,0.02 -0.51463,0.02 0,0 0.97638,12.43276 5.61331,15.2573 4.63693,2.82454 27.67217,5.67589 45.07626,5.53547 5.02386,-0.0405 6.7592,-1.82793 6.66391,-4.47526 -0.69798,1.59951 -2.61404,2.59825 -6.35333,2.6284 z"
         transform="translate(-31.39089,-100.5)"
         opacity="0.2"
         id="path24" />
      <ellipse
         cx="198.60912"
         cy="424.5"
         rx="187"
         ry="25.43993"
         fill="#3f3d56"
         id="ellipse26" />
      <ellipse
         cx="198.60912"
         cy="424.5"
         rx="157"
         ry="21.35866"
         opacity="0.1"
         id="ellipse28" />
      <ellipse
         cx="836.60913"
         cy="660.5"
         rx="283"
         ry="38.5"
         fill="#3f3d56"
         id="ellipse30" />
      <ellipse
         cx="310.6091"
         cy="645.5"
         rx="170"
         ry="23.127211"
         fill="#3f3d56"
         id="ellipse32" />
      <path
         d="m 494,726.5 c 90,23 263,-30 282,-90"
         transform="translate(-31.39089,-100.5)"
         fill="none"
         stroke="#2f2e41"
         stroke-miterlimit="10"
         stroke-width="2"
         id="path34" />
      <path
         d="m 341,359.5 c 0,0 130,-36 138,80 8,116 -107,149 -17,172"
         transform="translate(-31.39089,-100.5)"
         fill="none"
         stroke="#2f2e41"
         stroke-miterlimit="10"
         stroke-width="2"
         id="path36" />
      <path
         d="m 215.40233,637.78332 c 0,0 39.0723,-10.82 41.47675,24.04449 2.40445,34.86449 -32.15951,44.78287 -5.10946,51.69566"
         transform="translate(-31.39089,-100.5)"
         fill="none"
         stroke="#2f2e41"
         stroke-miterlimit="10"
         stroke-width="2"
         id="path38" />
      <path
         d="m 810.09554,663.73988 -7.87754,50.29517 c 0,0 -38.78182,20.60284 -11.51335,21.20881 27.26847,0.60597 155.73324,0 155.73324,0 0,0 24.84461,0 -14.54318,-21.81478 l -7.87756,-52.719 z"
         transform="translate(-31.39089,-100.5)"
         fill="#2f2e41"
         id="path40" />
      <path
         d="m 785.21906,734.69812 c 6.193,-5.51039 16.9989,-11.252 16.9989,-11.252 l 7.87756,-50.2952 113.9216,0.10717 7.87756,49.582 c 9.185,5.08711 14.8749,8.987 18.20362,11.97818 5.05882,-1.15422 10.58716,-5.44353 -18.20362,-21.38921 l -7.87756,-52.719 -113.9216,3.02983 -7.87752,50.29517 c 0,0 -32.58815,17.31462 -16.99894,20.66306 z"
         transform="translate(-31.39089,-100.5)"
         opacity="0.1"
         id="path42" />
      <rect
         x="578.43292"
         y="212.68858"
         width="513.25311"
         height="357.5199"
         rx="18.045679"
         fill="#2f2e41"
         id="rect44" />
      <rect
         x="595.70294"
         y="231.77652"
         width="478.71307"
         height="267.83694"
         fill="#3f3d56"
         id="rect46" />
      <circle
         cx="835.05951"
         cy="223.29298"
         r="3.02983"
         fill="#f2f2f2"
         id="circle48" />
      <path
         d="m 1123.0769,621.32226 v 31.34054 a 18.04341,18.04341 0 0 1 -18.0456,18.04568 H 627.86949 A 18.04341,18.04341 0 0 1 609.8238,652.6628 v -31.34054 z"
         transform="translate(-31.39089,-100.5)"
         fill="#2f2e41"
         id="path50" />
      <polygon
         points="642.968,668.678 643.417,667.466 651.452,645.651 962.312,645.651 968.978,667.466 968.978,673.526 642.968,673.526 "
         fill="#2f2e41"
         id="polygon52" />
      <path
         d="m 1125.828,762.03359 c -0.5938,2.539 -2.8359,5.21743 -7.9018,7.75032 -18.179,9.08949 -55.1429,-2.42386 -55.1429,-2.42386 0,0 -28.4804,-4.84773 -28.4804,-17.573 a 22.72457,22.72457 0 0 1 2.4966,-1.48459 c 7.6429,-4.04351 32.9845,-14.02122 77.9177,0.42248 a 18.73921,18.73921 0 0 1 8.5411,5.59715 c 1.8208,2.13144 3.2484,4.83506 2.5697,7.7115 z"
         transform="translate(-31.39089,-100.5)"
         fill="#2f2e41"
         id="path54" />
      <path
         d="m 1125.828,762.03359 c -22.251,8.526 -42.0843,9.1622 -62.4387,-4.975 -10.2651,-7.12617 -19.5909,-8.88955 -26.5898,-8.75618 7.6429,-4.04351 32.9845,-14.02122 77.9177,0.42248 a 18.73921,18.73921 0 0 1 8.5411,5.59715 c 1.8208,2.13149 3.2484,4.83511 2.5697,7.71155 z"
         transform="translate(-31.39089,-100.5)"
         opacity="0.1"
         id="path56" />
      <ellipse
         cx="1066.5385"
         cy="654.13477"
         rx="7.8775601"
         ry="2.4238601"
         fill="#f2f2f2"
         id="ellipse58" />
      <circle
         cx="835.05951"
         cy="545.66687"
         r="11.51335"
         fill="#f2f2f2"
         id="circle60" />
      <polygon
         points="642.968,673.526 642.968,668.678 643.417,667.466 968.978,667.466 968.978,673.526 "
         opacity="0.1"
         id="polygon62" />
      <rect
         x="108.60911"
         y="159"
         width="208"
         height="242"
         fill="#2f2e41"
         id="rect64" />
      <rect
         x="87.609108"
         y="135"
         width="250"
         height="86"
         fill="#3f3d56"
         id="rect66" />
      <rect
         x="87.609108"
         y="237"
         width="250"
         height="86"
         fill="#3f3d56"
         id="rect68" />
      <rect
         x="87.609108"
         y="339"
         width="250"
         height="86"
         fill="#3f3d56"
         id="rect70" />
      <rect
         x="271.6091"
         y="150"
         width="16"
         height="16"
         fill="#0e0e4c"
         opacity="0.4"
         id="rect72" />
      <rect
         x="294.6091"
         y="150"
         width="16"
         height="16"
         fill="#0e0e4c"
         opacity="0.8"
         id="rect74" />
      <rect
         x="317.6091"
         y="150"
         width="16"
         height="16"
         fill="#0e0e4c"
         id="rect76" />
      <rect
         x="271.6091"
         y="251"
         width="16"
         height="16"
         fill="#0e0e4c"
         opacity="0.4"
         id="rect78" />
      <rect
         x="294.6091"
         y="251"
         width="16"
         height="16"
         fill="#0e0e4c"
         opacity="0.8"
         id="rect80" />
      <rect
         x="317.6091"
         y="251"
         width="16"
         height="16"
         fill="#0e0e4c"
         id="rect82" />
      <rect
         x="271.6091"
         y="352"
         width="16"
         height="16"
         fill="#0e0e4c"
         opacity="0.4"
         id="rect84" />
      <rect
         x="294.6091"
         y="352"
         width="16"
         height="16"
         fill="#0e0e4c"
         opacity="0.8"
         id="rect86" />
      <rect
         x="317.6091"
         y="352"
         width="16"
         height="16"
         fill="#0e0e4c"
         id="rect88" />
      <circle
         cx="316.6091"
         cy="538"
         r="79"
         fill="#2f2e41"
         id="circle90" />
      <rect
         x="280.6091"
         y="600"
         width="24"
         height="43"
         fill="#2f2e41"
         id="rect92" />
      <rect
         x="328.6091"
         y="600"
         width="24"
         height="43"
         fill="#2f2e41"
         id="rect94" />
      <ellipse
         cx="300.6091"
         cy="643.5"
         rx="20"
         ry="7.5"
         fill="#2f2e41"
         id="ellipse96" />
      <ellipse
         cx="348.6091"
         cy="642.5"
         rx="20"
         ry="7.5"
         fill="#2f2e41"
         id="ellipse98" />
      <circle
         cx="318.6091"
         cy="518"
         r="27"
         fill="#ffffff"
         id="circle100" />
      <circle
         cx="318.6091"
         cy="518"
         r="9"
         fill="#3f3d56"
         id="circle102" />
      <path
         d="m 271.36733,565.03228 c -6.37889,-28.56758 14.01185,-57.43392 45.544,-64.47477 31.53215,-7.04085 62.2651,10.41 68.644,38.9776 6.3789,28.5676 -14.51861,39.10379 -46.05075,46.14464 -31.53214,7.04085 -61.75836,7.92011 -68.13725,-20.64747 z"
         transform="translate(-31.39089,-100.5)"
         fill="#0e0e4c"
         id="path104" />
      <ellipse
         cx="417.21512"
         cy="611.34363"
         rx="39.5"
         ry="12.40027"
         transform="rotate(-23.17116,156.40763,637.65378)"
         fill="#2f2e41"
         id="ellipse106" />
      <ellipse
         cx="269.21512"
         cy="664.34363"
         rx="39.5"
         ry="12.40027"
         transform="rotate(-23.17116,8.4076284,690.65378)"
         fill="#2f2e41"
         id="ellipse108" />
      <path
         d="m 394,661.5 c 0,7.732 -19.90861,23 -42,23 -22.09139,0 -43,-14.268 -43,-22 0,-7.732 20.90861,-6 43,-6 22.09139,0 42,-2.732 42,5 z"
         transform="translate(-31.39089,-100.5)"
         fill="#ffffff"
         id="path110" />
    </g>
  </g>
</svg>
